<?xml version="1.0" encoding="utf-8" standalone="no"?>
<!DOCTYPE svg PUBLIC "-//W3C//DTD SVG 1.1//EN"
  "http://www.w3.org/Graphics/SVG/1.1/DTD/svg11.dtd">
<svg xmlns:xlink="http://www.w3.org/1999/xlink" width="720pt" height="432pt" viewBox="0 0 720 432" xmlns="http://www.w3.org/2000/svg" version="1.1">
 <metadata>
  <rdf:RDF xmlns:dc="http://purl.org/dc/elements/1.1/" xmlns:cc="http://creativecommons.org/ns#" xmlns:rdf="http://www.w3.org/1999/02/22-rdf-syntax-ns#">
   <cc:Work>
    <dc:type rdf:resource="http://purl.org/dc/dcmitype/StillImage"/>
    <dc:date>2025-02-07T14:39:46.894007</dc:date>
    <dc:format>image/svg+xml</dc:format>
    <dc:creator>
     <cc:Agent>
      <dc:title>Matplotlib v3.10.0, https://matplotlib.org/</dc:title>
     </cc:Agent>
    </dc:creator>
   </cc:Work>
  </rdf:RDF>
 </metadata>
 <defs>
  <style type="text/css">*{stroke-linejoin: round; stroke-linecap: butt}</style>
 </defs>
 <g id="figure_1">
  <g id="patch_1">
   <path d="M 0 432 
L 720 432 
L 720 0 
L 0 0 
z
" style="fill: #ffffff"/>
  </g>
  <g id="axes_1">
   <g id="patch_2">
    <path d="M 90 384.48 
L 648 384.48 
L 648 51.84 
L 90 51.84 
z
" style="fill: #ffffff"/>
   </g>
   <g id="patch_3">
    <path d="M 115.363636 384.48 
L 118.674816 384.48 
L 118.674816 297.876904 
L 115.363636 297.876904 
z
" clip-path="url(#p55b7164487)" style="fill: #1f77b4"/>
   </g>
   <g id="patch_4">
    <path d="M 123.310468 384.48 
L 126.621647 384.48 
L 126.621647 230.251266 
L 123.310468 230.251266 
z
" clip-path="url(#p55b7164487)" style="fill: #1f77b4"/>
   </g>
   <g id="patch_5">
    <path d="M 131.257299 384.48 
L 134.568479 384.48 
L 134.568479 309.16729 
L 131.257299 309.16729 
z
" clip-path="url(#p55b7164487)" style="fill: #1f77b4"/>
   </g>
   <g id="patch_6">
    <path d="M 139.20413 384.48 
L 142.51531 384.48 
L 142.51531 354.078319 
L 139.20413 354.078319 
z
" clip-path="url(#p55b7164487)" style="fill: #1f77b4"/>
   </g>
   <g id="patch_7">
    <path d="M 147.150961 384.48 
L 150.462141 384.48 
L 150.462141 328.549692 
L 147.150961 328.549692 
z
" clip-path="url(#p55b7164487)" style="fill: #1f77b4"/>
   </g>
   <g id="patch_8">
    <path d="M 155.097793 384.48 
L 158.408972 384.48 
L 158.408972 361.892364 
L 155.097793 361.892364 
z
" clip-path="url(#p55b7164487)" style="fill: #1f77b4"/>
   </g>
   <g id="patch_9">
    <path d="M 163.044624 384.48 
L 166.355803 384.48 
L 166.355803 224.475667 
L 163.044624 224.475667 
z
" clip-path="url(#p55b7164487)" style="fill: #1f77b4"/>
   </g>
   <g id="patch_10">
    <path d="M 170.991455 384.48 
L 174.302635 384.48 
L 174.302635 372.355704 
L 170.991455 372.355704 
z
" clip-path="url(#p55b7164487)" style="fill: #1f77b4"/>
   </g>
   <g id="patch_11">
    <path d="M 178.938286 384.48 
L 182.249466 384.48 
L 182.249466 379.140231 
L 178.938286 379.140231 
z
" clip-path="url(#p55b7164487)" style="fill: #1f77b4"/>
   </g>
   <g id="patch_12">
    <path d="M 186.885117 384.48 
L 190.196297 384.48 
L 190.196297 264.980356 
L 186.885117 264.980356 
z
" clip-path="url(#p55b7164487)" style="fill: #1f77b4"/>
   </g>
   <g id="patch_13">
    <path d="M 194.831949 384.48 
L 198.143128 384.48 
L 198.143128 217.553871 
L 194.831949 217.553871 
z
" clip-path="url(#p55b7164487)" style="fill: #1f77b4"/>
   </g>
   <g id="patch_14">
    <path d="M 202.77878 384.48 
L 206.08996 384.48 
L 206.08996 67.68 
L 202.77878 67.68 
z
" clip-path="url(#p55b7164487)" style="fill: #1f77b4"/>
   </g>
   <g id="patch_15">
    <path d="M 210.725611 384.48 
L 214.036791 384.48 
L 214.036791 301.109592 
L 210.725611 301.109592 
z
" clip-path="url(#p55b7164487)" style="fill: #1f77b4"/>
   </g>
   <g id="patch_16">
    <path d="M 218.672442 384.48 
L 221.983622 384.48 
L 221.983622 381.659119 
L 218.672442 381.659119 
z
" clip-path="url(#p55b7164487)" style="fill: #1f77b4"/>
   </g>
   <g id="patch_17">
    <path d="M 226.619274 384.48 
L 229.930453 384.48 
L 229.930453 333.467359 
L 226.619274 333.467359 
z
" clip-path="url(#p55b7164487)" style="fill: #1f77b4"/>
   </g>
   <g id="patch_18">
    <path d="M 234.566105 384.48 
L 237.877285 384.48 
L 237.877285 319.644357 
L 234.566105 319.644357 
z
" clip-path="url(#p55b7164487)" style="fill: #1f77b4"/>
   </g>
   <g id="patch_19">
    <path d="M 242.512936 384.48 
L 245.824116 384.48 
L 245.824116 379.009825 
L 242.512936 379.009825 
z
" clip-path="url(#p55b7164487)" style="fill: #1f77b4"/>
   </g>
   <g id="patch_20">
    <path d="M 250.459767 384.48 
L 253.770947 384.48 
L 253.770947 335.890159 
L 250.459767 335.890159 
z
" clip-path="url(#p55b7164487)" style="fill: #1f77b4"/>
   </g>
   <g id="patch_21">
    <path d="M 258.406599 384.48 
L 261.717778 384.48 
L 261.717778 318.254507 
L 258.406599 318.254507 
z
" clip-path="url(#p55b7164487)" style="fill: #1f77b4"/>
   </g>
   <g id="patch_22">
    <path d="M 266.35343 384.48 
L 269.66461 384.48 
L 269.66461 364.08867 
L 266.35343 364.08867 
z
" clip-path="url(#p55b7164487)" style="fill: #1f77b4"/>
   </g>
   <g id="patch_23">
    <path d="M 274.300261 384.48 
L 277.611441 384.48 
L 277.611441 380.406538 
L 274.300261 380.406538 
z
" clip-path="url(#p55b7164487)" style="fill: #1f77b4"/>
   </g>
   <g id="patch_24">
    <path d="M 282.247092 384.48 
L 285.558272 384.48 
L 285.558272 318.676609 
L 282.247092 318.676609 
z
" clip-path="url(#p55b7164487)" style="fill: #1f77b4"/>
   </g>
   <g id="patch_25">
    <path d="M 290.193924 384.48 
L 293.505103 384.48 
L 293.505103 367.537557 
L 290.193924 367.537557 
z
" clip-path="url(#p55b7164487)" style="fill: #1f77b4"/>
   </g>
   <g id="patch_26">
    <path d="M 298.140755 384.48 
L 301.451934 384.48 
L 301.451934 324.743905 
L 298.140755 324.743905 
z
" clip-path="url(#p55b7164487)" style="fill: #1f77b4"/>
   </g>
   <g id="patch_27">
    <path d="M 306.087586 384.48 
L 309.398766 384.48 
L 309.398766 277.619412 
L 306.087586 277.619412 
z
" clip-path="url(#p55b7164487)" style="fill: #1f77b4"/>
   </g>
   <g id="patch_28">
    <path d="M 314.034417 384.48 
L 317.345597 384.48 
L 317.345597 378.52252 
L 314.034417 378.52252 
z
" clip-path="url(#p55b7164487)" style="fill: #1f77b4"/>
   </g>
   <g id="patch_29">
    <path d="M 321.981249 384.48 
L 325.292428 384.48 
L 325.292428 353.371383 
L 321.981249 353.371383 
z
" clip-path="url(#p55b7164487)" style="fill: #1f77b4"/>
   </g>
   <g id="patch_30">
    <path d="M 329.92808 384.48 
L 333.239259 384.48 
L 333.239259 367.997409 
L 329.92808 367.997409 
z
" clip-path="url(#p55b7164487)" style="fill: #1f77b4"/>
   </g>
   <g id="patch_31">
    <path d="M 337.874911 384.48 
L 341.186091 384.48 
L 341.186091 201.912053 
L 337.874911 201.912053 
z
" clip-path="url(#p55b7164487)" style="fill: #1f77b4"/>
   </g>
   <g id="patch_32">
    <path d="M 345.821742 384.48 
L 349.132922 384.48 
L 349.132922 380.368789 
L 345.821742 380.368789 
z
" clip-path="url(#p55b7164487)" style="fill: #1f77b4"/>
   </g>
   <g id="patch_33">
    <path d="M 353.768573 384.48 
L 357.079753 384.48 
L 357.079753 383.474504 
L 353.768573 383.474504 
z
" clip-path="url(#p55b7164487)" style="fill: #1f77b4"/>
   </g>
   <g id="patch_34">
    <path d="M 361.715405 384.48 
L 365.026584 384.48 
L 365.026584 371.480613 
L 361.715405 371.480613 
z
" clip-path="url(#p55b7164487)" style="fill: #1f77b4"/>
   </g>
   <g id="patch_35">
    <path d="M 369.662236 384.48 
L 372.973416 384.48 
L 372.973416 377.029718 
L 369.662236 377.029718 
z
" clip-path="url(#p55b7164487)" style="fill: #1f77b4"/>
   </g>
   <g id="patch_36">
    <path d="M 377.609067 384.48 
L 380.920247 384.48 
L 380.920247 111.91841 
L 377.609067 111.91841 
z
" clip-path="url(#p55b7164487)" style="fill: #1f77b4"/>
   </g>
   <g id="patch_37">
    <path d="M 385.555898 384.48 
L 388.867078 384.48 
L 388.867078 350.941719 
L 385.555898 350.941719 
z
" clip-path="url(#p55b7164487)" style="fill: #1f77b4"/>
   </g>
   <g id="patch_38">
    <path d="M 393.50273 384.48 
L 396.813909 384.48 
L 396.813909 374.219132 
L 393.50273 374.219132 
z
" clip-path="url(#p55b7164487)" style="fill: #1f77b4"/>
   </g>
   <g id="patch_39">
    <path d="M 401.449561 384.48 
L 404.760741 384.48 
L 404.760741 380.691372 
L 401.449561 380.691372 
z
" clip-path="url(#p55b7164487)" style="fill: #1f77b4"/>
   </g>
   <g id="patch_40">
    <path d="M 409.396392 384.48 
L 412.707572 384.48 
L 412.707572 372.036553 
L 409.396392 372.036553 
z
" clip-path="url(#p55b7164487)" style="fill: #1f77b4"/>
   </g>
   <g id="patch_41">
    <path d="M 417.343223 384.48 
L 420.654403 384.48 
L 420.654403 368.265084 
L 417.343223 368.265084 
z
" clip-path="url(#p55b7164487)" style="fill: #1f77b4"/>
   </g>
   <g id="patch_42">
    <path d="M 425.290055 384.48 
L 428.601234 384.48 
L 428.601234 261.051027 
L 425.290055 261.051027 
z
" clip-path="url(#p55b7164487)" style="fill: #1f77b4"/>
   </g>
   <g id="patch_43">
    <path d="M 433.236886 384.48 
L 436.548066 384.48 
L 436.548066 310.910608 
L 433.236886 310.910608 
z
" clip-path="url(#p55b7164487)" style="fill: #1f77b4"/>
   </g>
   <g id="patch_44">
    <path d="M 441.183717 384.48 
L 444.494897 384.48 
L 444.494897 378.24455 
L 441.183717 378.24455 
z
" clip-path="url(#p55b7164487)" style="fill: #1f77b4"/>
   </g>
   <g id="patch_45">
    <path d="M 449.130548 384.48 
L 452.441728 384.48 
L 452.441728 377.420935 
L 449.130548 377.420935 
z
" clip-path="url(#p55b7164487)" style="fill: #1f77b4"/>
   </g>
   <g id="patch_46">
    <path d="M 457.07738 384.48 
L 460.388559 384.48 
L 460.388559 255.00089 
L 457.07738 255.00089 
z
" clip-path="url(#p55b7164487)" style="fill: #1f77b4"/>
   </g>
   <g id="patch_47">
    <path d="M 465.024211 384.48 
L 468.33539 384.48 
L 468.33539 373.28227 
L 465.024211 373.28227 
z
" clip-path="url(#p55b7164487)" style="fill: #1f77b4"/>
   </g>
   <g id="patch_48">
    <path d="M 472.971042 384.48 
L 476.282222 384.48 
L 476.282222 378.604881 
L 472.971042 378.604881 
z
" clip-path="url(#p55b7164487)" style="fill: #1f77b4"/>
   </g>
   <g id="patch_49">
    <path d="M 480.917873 384.48 
L 484.229053 384.48 
L 484.229053 379.136799 
L 480.917873 379.136799 
z
" clip-path="url(#p55b7164487)" style="fill: #1f77b4"/>
   </g>
   <g id="patch_50">
    <path d="M 488.864704 384.48 
L 492.175884 384.48 
L 492.175884 338.728198 
L 488.864704 338.728198 
z
" clip-path="url(#p55b7164487)" style="fill: #1f77b4"/>
   </g>
   <g id="patch_51">
    <path d="M 496.811536 384.48 
L 500.122715 384.48 
L 500.122715 209.96632 
L 496.811536 209.96632 
z
" clip-path="url(#p55b7164487)" style="fill: #1f77b4"/>
   </g>
   <g id="patch_52">
    <path d="M 504.758367 384.48 
L 508.069547 384.48 
L 508.069547 131.819002 
L 504.758367 131.819002 
z
" clip-path="url(#p55b7164487)" style="fill: #1f77b4"/>
   </g>
   <g id="patch_53">
    <path d="M 512.705198 384.48 
L 516.016378 384.48 
L 516.016378 379.47654 
L 512.705198 379.47654 
z
" clip-path="url(#p55b7164487)" style="fill: #1f77b4"/>
   </g>
   <g id="patch_54">
    <path d="M 520.652029 384.48 
L 523.963209 384.48 
L 523.963209 254.064029 
L 520.652029 254.064029 
z
" clip-path="url(#p55b7164487)" style="fill: #1f77b4"/>
   </g>
   <g id="patch_55">
    <path d="M 528.598861 384.48 
L 531.91004 384.48 
L 531.91004 364.847082 
L 528.598861 364.847082 
z
" clip-path="url(#p55b7164487)" style="fill: #1f77b4"/>
   </g>
   <g id="patch_56">
    <path d="M 536.545692 384.48 
L 539.856872 384.48 
L 539.856872 359.593106 
L 536.545692 359.593106 
z
" clip-path="url(#p55b7164487)" style="fill: #1f77b4"/>
   </g>
   <g id="patch_57">
    <path d="M 544.492523 384.48 
L 547.803703 384.48 
L 547.803703 325.938147 
L 544.492523 325.938147 
z
" clip-path="url(#p55b7164487)" style="fill: #1f77b4"/>
   </g>
   <g id="patch_58">
    <path d="M 552.439354 384.48 
L 555.750534 384.48 
L 555.750534 358.103736 
L 552.439354 358.103736 
z
" clip-path="url(#p55b7164487)" style="fill: #1f77b4"/>
   </g>
   <g id="patch_59">
    <path d="M 560.386186 384.48 
L 563.697365 384.48 
L 563.697365 346.161322 
L 560.386186 346.161322 
z
" clip-path="url(#p55b7164487)" style="fill: #1f77b4"/>
   </g>
   <g id="patch_60">
    <path d="M 568.333017 384.48 
L 571.644197 384.48 
L 571.644197 232.155875 
L 568.333017 232.155875 
z
" clip-path="url(#p55b7164487)" style="fill: #1f77b4"/>
   </g>
   <g id="patch_61">
    <path d="M 576.279848 384.48 
L 579.591028 384.48 
L 579.591028 341.672621 
L 576.279848 341.672621 
z
" clip-path="url(#p55b7164487)" style="fill: #1f77b4"/>
   </g>
   <g id="patch_62">
    <path d="M 584.226679 384.48 
L 587.537859 384.48 
L 587.537859 265.412754 
L 584.226679 265.412754 
z
" clip-path="url(#p55b7164487)" style="fill: #1f77b4"/>
   </g>
   <g id="patch_63">
    <path d="M 592.173511 384.48 
L 595.48469 384.48 
L 595.48469 381.99886 
L 592.173511 381.99886 
z
" clip-path="url(#p55b7164487)" style="fill: #1f77b4"/>
   </g>
   <g id="patch_64">
    <path d="M 600.120342 384.48 
L 603.431521 384.48 
L 603.431521 350.746111 
L 600.120342 350.746111 
z
" clip-path="url(#p55b7164487)" style="fill: #1f77b4"/>
   </g>
   <g id="patch_65">
    <path d="M 608.067173 384.48 
L 611.378353 384.48 
L 611.378353 382.496461 
L 608.067173 382.496461 
z
" clip-path="url(#p55b7164487)" style="fill: #1f77b4"/>
   </g>
   <g id="patch_66">
    <path d="M 616.014004 384.48 
L 619.325184 384.48 
L 619.325184 366.31243 
L 616.014004 366.31243 
z
" clip-path="url(#p55b7164487)" style="fill: #1f77b4"/>
   </g>
   <g id="patch_67">
    <path d="M 118.674816 384.48 
L 121.985996 384.48 
L 121.985996 275.760354 
L 118.674816 275.760354 
z
" clip-path="url(#p55b7164487)" style="fill: #ff7f0e"/>
   </g>
   <g id="patch_68">
    <path d="M 126.621647 384.48 
L 129.932827 384.48 
L 129.932827 361.729651 
L 126.621647 361.729651 
z
" clip-path="url(#p55b7164487)" style="fill: #ff7f0e"/>
   </g>
   <g id="patch_69">
    <path d="M 134.568479 384.48 
L 137.879658 384.48 
L 137.879658 332.486095 
L 134.568479 332.486095 
z
" clip-path="url(#p55b7164487)" style="fill: #ff7f0e"/>
   </g>
   <g id="patch_70">
    <path d="M 142.51531 384.48 
L 145.826489 384.48 
L 145.826489 329.909724 
L 142.51531 329.909724 
z
" clip-path="url(#p55b7164487)" style="fill: #ff7f0e"/>
   </g>
   <g id="patch_71">
    <path d="M 150.462141 384.48 
L 153.773321 384.48 
L 153.773321 344.502012 
L 150.462141 344.502012 
z
" clip-path="url(#p55b7164487)" style="fill: #ff7f0e"/>
   </g>
   <g id="patch_72">
    <path d="M 158.408972 384.48 
L 161.720152 384.48 
L 161.720152 313.440788 
L 158.408972 313.440788 
z
" clip-path="url(#p55b7164487)" style="fill: #ff7f0e"/>
   </g>
   <g id="patch_73">
    <path d="M 166.355803 384.48 
L 169.666983 384.48 
L 169.666983 332.400306 
L 166.355803 332.400306 
z
" clip-path="url(#p55b7164487)" style="fill: #ff7f0e"/>
   </g>
   <g id="patch_74">
    <path d="M 174.302635 384.48 
L 177.613814 384.48 
L 177.613814 270.108959 
L 174.302635 270.108959 
z
" clip-path="url(#p55b7164487)" style="fill: #ff7f0e"/>
   </g>
   <g id="patch_75">
    <path d="M 182.249466 384.48 
L 185.560646 384.48 
L 185.560646 275.998956 
L 182.249466 275.998956 
z
" clip-path="url(#p55b7164487)" style="fill: #ff7f0e"/>
   </g>
   <g id="patch_76">
    <path d="M 190.196297 384.48 
L 193.507477 384.48 
L 193.507477 342.046282 
L 190.196297 342.046282 
z
" clip-path="url(#p55b7164487)" style="fill: #ff7f0e"/>
   </g>
   <g id="patch_77">
    <path d="M 198.143128 384.48 
L 201.454308 384.48 
L 201.454308 366.198757 
L 198.143128 366.198757 
z
" clip-path="url(#p55b7164487)" style="fill: #ff7f0e"/>
   </g>
   <g id="patch_78">
    <path d="M 206.08996 384.48 
L 209.401139 384.48 
L 209.401139 368.740276 
L 206.08996 368.740276 
z
" clip-path="url(#p55b7164487)" style="fill: #ff7f0e"/>
   </g>
   <g id="patch_79">
    <path d="M 214.036791 384.48 
L 217.347971 384.48 
L 217.347971 366.472211 
L 214.036791 366.472211 
z
" clip-path="url(#p55b7164487)" style="fill: #ff7f0e"/>
   </g>
   <g id="patch_80">
    <path d="M 221.983622 384.48 
L 225.294802 384.48 
L 225.294802 347.834404 
L 221.983622 347.834404 
z
" clip-path="url(#p55b7164487)" style="fill: #ff7f0e"/>
   </g>
   <g id="patch_81">
    <path d="M 229.930453 384.48 
L 233.241633 384.48 
L 233.241633 238.471336 
L 229.930453 238.471336 
z
" clip-path="url(#p55b7164487)" style="fill: #ff7f0e"/>
   </g>
   <g id="patch_82">
    <path d="M 237.877285 384.48 
L 241.188464 384.48 
L 241.188464 362.000424 
L 237.877285 362.000424 
z
" clip-path="url(#p55b7164487)" style="fill: #ff7f0e"/>
   </g>
   <g id="patch_83">
    <path d="M 245.824116 384.48 
L 249.135296 384.48 
L 249.135296 335.896235 
L 245.824116 335.896235 
z
" clip-path="url(#p55b7164487)" style="fill: #ff7f0e"/>
   </g>
   <g id="patch_84">
    <path d="M 253.770947 384.48 
L 257.082127 384.48 
L 257.082127 365.665252 
L 253.770947 365.665252 
z
" clip-path="url(#p55b7164487)" style="fill: #ff7f0e"/>
   </g>
   <g id="patch_85">
    <path d="M 261.717778 384.48 
L 265.028958 384.48 
L 265.028958 367.356917 
L 261.717778 367.356917 
z
" clip-path="url(#p55b7164487)" style="fill: #ff7f0e"/>
   </g>
   <g id="patch_86">
    <path d="M 269.66461 384.48 
L 272.975789 384.48 
L 272.975789 283.816541 
L 269.66461 283.816541 
z
" clip-path="url(#p55b7164487)" style="fill: #ff7f0e"/>
   </g>
   <g id="patch_87">
    <path d="M 277.611441 384.48 
L 280.92262 384.48 
L 280.92262 382.152955 
L 277.611441 382.152955 
z
" clip-path="url(#p55b7164487)" style="fill: #ff7f0e"/>
   </g>
   <g id="patch_88">
    <path d="M 285.558272 384.48 
L 288.869452 384.48 
L 288.869452 330.998181 
L 285.558272 330.998181 
z
" clip-path="url(#p55b7164487)" style="fill: #ff7f0e"/>
   </g>
   <g id="patch_89">
    <path d="M 293.505103 384.48 
L 296.816283 384.48 
L 296.816283 265.567468 
L 293.505103 265.567468 
z
" clip-path="url(#p55b7164487)" style="fill: #ff7f0e"/>
   </g>
   <g id="patch_90">
    <path d="M 301.451934 384.48 
L 304.763114 384.48 
L 304.763114 163.314219 
L 301.451934 163.314219 
z
" clip-path="url(#p55b7164487)" style="fill: #ff7f0e"/>
   </g>
   <g id="patch_91">
    <path d="M 309.398766 384.48 
L 312.709945 384.48 
L 312.709945 358.20155 
L 309.398766 358.20155 
z
" clip-path="url(#p55b7164487)" style="fill: #ff7f0e"/>
   </g>
   <g id="patch_92">
    <path d="M 317.345597 384.48 
L 320.656777 384.48 
L 320.656777 327.767663 
L 317.345597 327.767663 
z
" clip-path="url(#p55b7164487)" style="fill: #ff7f0e"/>
   </g>
   <g id="patch_93">
    <path d="M 325.292428 384.48 
L 328.603608 384.48 
L 328.603608 303.486504 
L 325.292428 303.486504 
z
" clip-path="url(#p55b7164487)" style="fill: #ff7f0e"/>
   </g>
   <g id="patch_94">
    <path d="M 333.239259 384.48 
L 336.550439 384.48 
L 336.550439 256.959011 
L 333.239259 256.959011 
z
" clip-path="url(#p55b7164487)" style="fill: #ff7f0e"/>
   </g>
   <g id="patch_95">
    <path d="M 341.186091 384.48 
L 344.49727 384.48 
L 344.49727 333.389568 
L 341.186091 333.389568 
z
" clip-path="url(#p55b7164487)" style="fill: #ff7f0e"/>
   </g>
   <g id="patch_96">
    <path d="M 349.132922 384.48 
L 352.444102 384.48 
L 352.444102 264.682762 
L 349.132922 264.682762 
z
" clip-path="url(#p55b7164487)" style="fill: #ff7f0e"/>
   </g>
   <g id="patch_97">
    <path d="M 357.079753 384.48 
L 360.390933 384.48 
L 360.390933 191.225353 
L 357.079753 191.225353 
z
" clip-path="url(#p55b7164487)" style="fill: #ff7f0e"/>
   </g>
   <g id="patch_98">
    <path d="M 365.026584 384.48 
L 368.337764 384.48 
L 368.337764 348.866561 
L 365.026584 348.866561 
z
" clip-path="url(#p55b7164487)" style="fill: #ff7f0e"/>
   </g>
   <g id="patch_99">
    <path d="M 372.973416 384.48 
L 376.284595 384.48 
L 376.284595 374.825981 
L 372.973416 374.825981 
z
" clip-path="url(#p55b7164487)" style="fill: #ff7f0e"/>
   </g>
   <g id="patch_100">
    <path d="M 380.920247 384.48 
L 384.231427 384.48 
L 384.231427 371.775085 
L 380.920247 371.775085 
z
" clip-path="url(#p55b7164487)" style="fill: #ff7f0e"/>
   </g>
   <g id="patch_101">
    <path d="M 388.867078 384.48 
L 392.178258 384.48 
L 392.178258 371.579378 
L 388.867078 371.579378 
z
" clip-path="url(#p55b7164487)" style="fill: #ff7f0e"/>
   </g>
   <g id="patch_102">
    <path d="M 396.813909 384.48 
L 400.125089 384.48 
L 400.125089 165.938847 
L 396.813909 165.938847 
z
" clip-path="url(#p55b7164487)" style="fill: #ff7f0e"/>
   </g>
   <g id="patch_103">
    <path d="M 404.760741 384.48 
L 408.07192 384.48 
L 408.07192 360.110371 
L 404.760741 360.110371 
z
" clip-path="url(#p55b7164487)" style="fill: #ff7f0e"/>
   </g>
   <g id="patch_104">
    <path d="M 412.707572 384.48 
L 416.018751 384.48 
L 416.018751 363.032581 
L 412.707572 363.032581 
z
" clip-path="url(#p55b7164487)" style="fill: #ff7f0e"/>
   </g>
   <g id="patch_105">
    <path d="M 420.654403 384.48 
L 423.965583 384.48 
L 423.965583 288.966602 
L 420.654403 288.966602 
z
" clip-path="url(#p55b7164487)" style="fill: #ff7f0e"/>
   </g>
   <g id="patch_106">
    <path d="M 428.601234 384.48 
L 431.912414 384.48 
L 431.912414 328.571941 
L 428.601234 328.571941 
z
" clip-path="url(#p55b7164487)" style="fill: #ff7f0e"/>
   </g>
   <g id="patch_107">
    <path d="M 436.548066 384.48 
L 439.859245 384.48 
L 439.859245 379.97068 
L 436.548066 379.97068 
z
" clip-path="url(#p55b7164487)" style="fill: #ff7f0e"/>
   </g>
   <g id="patch_108">
    <path d="M 444.494897 384.48 
L 447.806076 384.48 
L 447.806076 324.40578 
L 444.494897 324.40578 
z
" clip-path="url(#p55b7164487)" style="fill: #ff7f0e"/>
   </g>
   <g id="patch_109">
    <path d="M 452.441728 384.48 
L 455.752908 384.48 
L 455.752908 320.223534 
L 452.441728 320.223534 
z
" clip-path="url(#p55b7164487)" style="fill: #ff7f0e"/>
   </g>
   <g id="patch_110">
    <path d="M 460.388559 384.48 
L 463.699739 384.48 
L 463.699739 313.550706 
L 460.388559 313.550706 
z
" clip-path="url(#p55b7164487)" style="fill: #ff7f0e"/>
   </g>
   <g id="patch_111">
    <path d="M 468.33539 384.48 
L 471.64657 384.48 
L 471.64657 187.836661 
L 468.33539 187.836661 
z
" clip-path="url(#p55b7164487)" style="fill: #ff7f0e"/>
   </g>
   <g id="patch_112">
    <path d="M 476.282222 384.48 
L 479.593401 384.48 
L 479.593401 382.209255 
L 476.282222 382.209255 
z
" clip-path="url(#p55b7164487)" style="fill: #ff7f0e"/>
   </g>
   <g id="patch_113">
    <path d="M 484.229053 384.48 
L 487.540233 384.48 
L 487.540233 343.587815 
L 484.229053 343.587815 
z
" clip-path="url(#p55b7164487)" style="fill: #ff7f0e"/>
   </g>
   <g id="patch_114">
    <path d="M 492.175884 384.48 
L 495.487064 384.48 
L 495.487064 347.566312 
L 492.175884 347.566312 
z
" clip-path="url(#p55b7164487)" style="fill: #ff7f0e"/>
   </g>
   <g id="patch_115">
    <path d="M 500.122715 384.48 
L 503.433895 384.48 
L 503.433895 350.022041 
L 500.122715 350.022041 
z
" clip-path="url(#p55b7164487)" style="fill: #ff7f0e"/>
   </g>
   <g id="patch_116">
    <path d="M 508.069547 384.48 
L 511.380726 384.48 
L 511.380726 350.531417 
L 508.069547 350.531417 
z
" clip-path="url(#p55b7164487)" style="fill: #ff7f0e"/>
   </g>
   <g id="patch_117">
    <path d="M 516.016378 384.48 
L 519.327558 384.48 
L 519.327558 328.612155 
L 516.016378 328.612155 
z
" clip-path="url(#p55b7164487)" style="fill: #ff7f0e"/>
   </g>
   <g id="patch_118">
    <path d="M 523.963209 384.48 
L 527.274389 384.48 
L 527.274389 374.346095 
L 523.963209 374.346095 
z
" clip-path="url(#p55b7164487)" style="fill: #ff7f0e"/>
   </g>
   <g id="patch_119">
    <path d="M 531.91004 384.48 
L 535.22122 384.48 
L 535.22122 320.451413 
L 531.91004 320.451413 
z
" clip-path="url(#p55b7164487)" style="fill: #ff7f0e"/>
   </g>
   <g id="patch_120">
    <path d="M 539.856872 384.48 
L 543.168051 384.48 
L 543.168051 376.059207 
L 539.856872 376.059207 
z
" clip-path="url(#p55b7164487)" style="fill: #ff7f0e"/>
   </g>
   <g id="patch_121">
    <path d="M 547.803703 384.48 
L 551.114883 384.48 
L 551.114883 379.002865 
L 547.803703 379.002865 
z
" clip-path="url(#p55b7164487)" style="fill: #ff7f0e"/>
   </g>
   <g id="patch_122">
    <path d="M 555.750534 384.48 
L 559.061714 384.48 
L 559.061714 346.885356 
L 555.750534 346.885356 
z
" clip-path="url(#p55b7164487)" style="fill: #ff7f0e"/>
   </g>
   <g id="patch_123">
    <path d="M 563.697365 384.48 
L 567.008545 384.48 
L 567.008545 275.725502 
L 563.697365 275.725502 
z
" clip-path="url(#p55b7164487)" style="fill: #ff7f0e"/>
   </g>
   <g id="patch_124">
    <path d="M 571.644197 384.48 
L 574.955376 384.48 
L 574.955376 312.773237 
L 571.644197 312.773237 
z
" clip-path="url(#p55b7164487)" style="fill: #ff7f0e"/>
   </g>
   <g id="patch_125">
    <path d="M 579.591028 384.48 
L 582.902207 384.48 
L 582.902207 347.668187 
L 579.591028 347.668187 
z
" clip-path="url(#p55b7164487)" style="fill: #ff7f0e"/>
   </g>
   <g id="patch_126">
    <path d="M 587.537859 384.48 
L 590.849039 384.48 
L 590.849039 354.64396 
L 587.537859 354.64396 
z
" clip-path="url(#p55b7164487)" style="fill: #ff7f0e"/>
   </g>
   <g id="patch_127">
    <path d="M 595.48469 384.48 
L 598.79587 384.48 
L 598.79587 374.560569 
L 595.48469 374.560569 
z
" clip-path="url(#p55b7164487)" style="fill: #ff7f0e"/>
   </g>
   <g id="patch_128">
    <path d="M 603.431521 384.48 
L 606.742701 384.48 
L 606.742701 287.13821 
L 603.431521 287.13821 
z
" clip-path="url(#p55b7164487)" style="fill: #ff7f0e"/>
   </g>
   <g id="patch_129">
    <path d="M 611.378353 384.48 
L 614.689532 384.48 
L 614.689532 318.880389 
L 611.378353 318.880389 
z
" clip-path="url(#p55b7164487)" style="fill: #ff7f0e"/>
   </g>
   <g id="patch_130">
    <path d="M 619.325184 384.48 
L 622.636364 384.48 
L 622.636364 256.583681 
L 619.325184 256.583681 
z
" clip-path="url(#p55b7164487)" style="fill: #ff7f0e"/>
   </g>
   <g id="matplotlib.axis_1">
    <g id="xtick_1">
     <g id="line2d_1">
      <defs>
       <path id="m535b99e83e" d="M 0 0 
L 0 3.5 
" style="stroke: #000000; stroke-width: 0.8"/>
      </defs>
      <g>
       <use xlink:href="#m535b99e83e" x="118.674816" y="384.48" style="stroke: #000000; stroke-width: 0.8"/>
      </g>
     </g>
     <g id="text_1">
      <!-- ATG -->
      <g transform="translate(121.434191 411.401875) rotate(-90) scale(0.1 -0.1)">
       <defs>
        <path id="DejaVuSans-41" d="M 2188 4044 
L 1331 1722 
L 3047 1722 
L 2188 4044 
z
M 1831 4666 
L 2547 4666 
L 4325 0 
L 3669 0 
L 3244 1197 
L 1141 1197 
L 716 0 
L 50 0 
L 1831 4666 
z
" transform="scale(0.015625)"/>
        <path id="DejaVuSans-54" d="M -19 4666 
L 3928 4666 
L 3928 4134 
L 2272 4134 
L 2272 0 
L 1638 0 
L 1638 4134 
L -19 4134 
L -19 4666 
z
" transform="scale(0.015625)"/>
        <path id="DejaVuSans-47" d="M 3809 666 
L 3809 1919 
L 2778 1919 
L 2778 2438 
L 4434 2438 
L 4434 434 
Q 4069 175 3628 42 
Q 3188 -91 2688 -91 
Q 1594 -91 976 548 
Q 359 1188 359 2328 
Q 359 3472 976 4111 
Q 1594 4750 2688 4750 
Q 3144 4750 3555 4637 
Q 3966 4525 4313 4306 
L 4313 3634 
Q 3963 3931 3569 4081 
Q 3175 4231 2741 4231 
Q 1884 4231 1454 3753 
Q 1025 3275 1025 2328 
Q 1025 1384 1454 906 
Q 1884 428 2741 428 
Q 3075 428 3337 486 
Q 3600 544 3809 666 
z
" transform="scale(0.015625)"/>
       </defs>
       <use xlink:href="#DejaVuSans-41"/>
       <use xlink:href="#DejaVuSans-54" transform="translate(60.658203 0)"/>
       <use xlink:href="#DejaVuSans-47" transform="translate(121.742188 0)"/>
      </g>
     </g>
    </g>
    <g id="xtick_2">
     <g id="line2d_2">
      <g>
       <use xlink:href="#m535b99e83e" x="126.621647" y="384.48" style="stroke: #000000; stroke-width: 0.8"/>
      </g>
     </g>
     <g id="text_2">
      <!-- GTC -->
      <g transform="translate(129.381022 411.369062) rotate(-90) scale(0.1 -0.1)">
       <defs>
        <path id="DejaVuSans-43" d="M 4122 4306 
L 4122 3641 
Q 3803 3938 3442 4084 
Q 3081 4231 2675 4231 
Q 1875 4231 1450 3742 
Q 1025 3253 1025 2328 
Q 1025 1406 1450 917 
Q 1875 428 2675 428 
Q 3081 428 3442 575 
Q 3803 722 4122 1019 
L 4122 359 
Q 3791 134 3420 21 
Q 3050 -91 2638 -91 
Q 1578 -91 968 557 
Q 359 1206 359 2328 
Q 359 3453 968 4101 
Q 1578 4750 2638 4750 
Q 3056 4750 3426 4639 
Q 3797 4528 4122 4306 
z
" transform="scale(0.015625)"/>
       </defs>
       <use xlink:href="#DejaVuSans-47"/>
       <use xlink:href="#DejaVuSans-54" transform="translate(73.865234 0)"/>
       <use xlink:href="#DejaVuSans-43" transform="translate(129.074219 0)"/>
      </g>
     </g>
    </g>
    <g id="xtick_3">
     <g id="line2d_3">
      <g>
       <use xlink:href="#m535b99e83e" x="134.568479" y="384.48" style="stroke: #000000; stroke-width: 0.8"/>
      </g>
     </g>
     <g id="text_3">
      <!-- AAC -->
      <g transform="translate(137.327854 412.244062) rotate(-90) scale(0.1 -0.1)">
       <use xlink:href="#DejaVuSans-41"/>
       <use xlink:href="#DejaVuSans-41" transform="translate(71.158203 0)"/>
       <use xlink:href="#DejaVuSans-43" transform="translate(137.816406 0)"/>
      </g>
     </g>
    </g>
    <g id="xtick_4">
     <g id="line2d_4">
      <g>
       <use xlink:href="#m535b99e83e" x="142.51531" y="384.48" style="stroke: #000000; stroke-width: 0.8"/>
      </g>
     </g>
     <g id="text_4">
      <!-- CGT -->
      <g transform="translate(145.274685 411.956563) rotate(-90) scale(0.1 -0.1)">
       <use xlink:href="#DejaVuSans-43"/>
       <use xlink:href="#DejaVuSans-47" transform="translate(69.824219 0)"/>
       <use xlink:href="#DejaVuSans-54" transform="translate(143.689453 0)"/>
      </g>
     </g>
    </g>
    <g id="xtick_5">
     <g id="line2d_5">
      <g>
       <use xlink:href="#m535b99e83e" x="150.462141" y="384.48" style="stroke: #000000; stroke-width: 0.8"/>
      </g>
     </g>
     <g id="text_5">
      <!-- TGG -->
      <g transform="translate(153.221516 413.084688) rotate(-90) scale(0.1 -0.1)">
       <use xlink:href="#DejaVuSans-54"/>
       <use xlink:href="#DejaVuSans-47" transform="translate(61.083984 0)"/>
       <use xlink:href="#DejaVuSans-47" transform="translate(138.574219 0)"/>
      </g>
     </g>
    </g>
    <g id="xtick_6">
     <g id="line2d_6">
      <g>
       <use xlink:href="#m535b99e83e" x="158.408972" y="384.48" style="stroke: #000000; stroke-width: 0.8"/>
      </g>
     </g>
     <g id="text_6">
      <!-- CTT -->
      <g transform="translate(161.168347 410.503438) rotate(-90) scale(0.1 -0.1)">
       <use xlink:href="#DejaVuSans-43"/>
       <use xlink:href="#DejaVuSans-54" transform="translate(69.824219 0)"/>
       <use xlink:href="#DejaVuSans-54" transform="translate(129.158203 0)"/>
      </g>
     </g>
    </g>
    <g id="xtick_7">
     <g id="line2d_7">
      <g>
       <use xlink:href="#m535b99e83e" x="166.355803" y="384.48" style="stroke: #000000; stroke-width: 0.8"/>
      </g>
     </g>
     <g id="text_7">
      <!-- ATC -->
      <g transform="translate(169.115178 410.04875) rotate(-90) scale(0.1 -0.1)">
       <use xlink:href="#DejaVuSans-41"/>
       <use xlink:href="#DejaVuSans-54" transform="translate(60.658203 0)"/>
       <use xlink:href="#DejaVuSans-43" transform="translate(115.867188 0)"/>
      </g>
     </g>
    </g>
    <g id="xtick_8">
     <g id="line2d_8">
      <g>
       <use xlink:href="#m535b99e83e" x="174.302635" y="384.48" style="stroke: #000000; stroke-width: 0.8"/>
      </g>
     </g>
     <g id="text_8">
      <!-- GCA -->
      <g transform="translate(177.06201 413.051875) rotate(-90) scale(0.1 -0.1)">
       <use xlink:href="#DejaVuSans-47"/>
       <use xlink:href="#DejaVuSans-43" transform="translate(77.490234 0)"/>
       <use xlink:href="#DejaVuSans-41" transform="translate(147.314453 0)"/>
      </g>
     </g>
    </g>
    <g id="xtick_9">
     <g id="line2d_9">
      <g>
       <use xlink:href="#m535b99e83e" x="182.249466" y="384.48" style="stroke: #000000; stroke-width: 0.8"/>
      </g>
     </g>
     <g id="text_9">
      <!-- ACA -->
      <g transform="translate(185.008841 411.969063) rotate(-90) scale(0.1 -0.1)">
       <use xlink:href="#DejaVuSans-41"/>
       <use xlink:href="#DejaVuSans-43" transform="translate(66.658203 0)"/>
       <use xlink:href="#DejaVuSans-41" transform="translate(136.482422 0)"/>
      </g>
     </g>
    </g>
    <g id="xtick_10">
     <g id="line2d_10">
      <g>
       <use xlink:href="#m535b99e83e" x="190.196297" y="384.48" style="stroke: #000000; stroke-width: 0.8"/>
      </g>
     </g>
     <g id="text_10">
      <!-- GTG -->
      <g transform="translate(192.955672 412.722188) rotate(-90) scale(0.1 -0.1)">
       <use xlink:href="#DejaVuSans-47"/>
       <use xlink:href="#DejaVuSans-54" transform="translate(73.865234 0)"/>
       <use xlink:href="#DejaVuSans-47" transform="translate(134.949219 0)"/>
      </g>
     </g>
    </g>
    <g id="xtick_11">
     <g id="line2d_11">
      <g>
       <use xlink:href="#m535b99e83e" x="198.143128" y="384.48" style="stroke: #000000; stroke-width: 0.8"/>
      </g>
     </g>
     <g id="text_11">
      <!-- CGC -->
      <g transform="translate(200.902503 413.194063) rotate(-90) scale(0.1 -0.1)">
       <use xlink:href="#DejaVuSans-43"/>
       <use xlink:href="#DejaVuSans-47" transform="translate(69.824219 0)"/>
       <use xlink:href="#DejaVuSans-43" transform="translate(147.314453 0)"/>
      </g>
     </g>
    </g>
    <g id="xtick_12">
     <g id="line2d_12">
      <g>
       <use xlink:href="#m535b99e83e" x="206.08996" y="384.48" style="stroke: #000000; stroke-width: 0.8"/>
      </g>
     </g>
     <g id="text_12">
      <!-- GCC -->
      <g transform="translate(208.849335 413.194063) rotate(-90) scale(0.1 -0.1)">
       <use xlink:href="#DejaVuSans-47"/>
       <use xlink:href="#DejaVuSans-43" transform="translate(77.490234 0)"/>
       <use xlink:href="#DejaVuSans-43" transform="translate(147.314453 0)"/>
      </g>
     </g>
    </g>
    <g id="xtick_13">
     <g id="line2d_13">
      <g>
       <use xlink:href="#m535b99e83e" x="214.036791" y="384.48" style="stroke: #000000; stroke-width: 0.8"/>
      </g>
     </g>
     <g id="text_13">
      <!-- TCG -->
      <g transform="translate(216.796166 411.731562) rotate(-90) scale(0.1 -0.1)">
       <use xlink:href="#DejaVuSans-54"/>
       <use xlink:href="#DejaVuSans-43" transform="translate(55.208984 0)"/>
       <use xlink:href="#DejaVuSans-47" transform="translate(125.033203 0)"/>
      </g>
     </g>
    </g>
    <g id="xtick_14">
     <g id="line2d_14">
      <g>
       <use xlink:href="#m535b99e83e" x="221.983622" y="384.48" style="stroke: #000000; stroke-width: 0.8"/>
      </g>
     </g>
     <g id="text_14">
      <!-- AGA -->
      <g transform="translate(224.742997 412.734688) rotate(-90) scale(0.1 -0.1)">
       <use xlink:href="#DejaVuSans-41"/>
       <use xlink:href="#DejaVuSans-47" transform="translate(66.658203 0)"/>
       <use xlink:href="#DejaVuSans-41" transform="translate(144.148438 0)"/>
      </g>
     </g>
    </g>
    <g id="xtick_15">
     <g id="line2d_15">
      <g>
       <use xlink:href="#m535b99e83e" x="229.930453" y="384.48" style="stroke: #000000; stroke-width: 0.8"/>
      </g>
     </g>
     <g id="text_15">
      <!-- GAT -->
      <g transform="translate(232.689828 411.401875) rotate(-90) scale(0.1 -0.1)">
       <use xlink:href="#DejaVuSans-47"/>
       <use xlink:href="#DejaVuSans-41" transform="translate(77.490234 0)"/>
       <use xlink:href="#DejaVuSans-54" transform="translate(138.148438 0)"/>
      </g>
     </g>
    </g>
    <g id="xtick_16">
     <g id="line2d_16">
      <g>
       <use xlink:href="#m535b99e83e" x="237.877285" y="384.48" style="stroke: #000000; stroke-width: 0.8"/>
      </g>
     </g>
     <g id="text_16">
      <!-- AGC -->
      <g transform="translate(240.63666 412.876875) rotate(-90) scale(0.1 -0.1)">
       <use xlink:href="#DejaVuSans-41"/>
       <use xlink:href="#DejaVuSans-47" transform="translate(66.658203 0)"/>
       <use xlink:href="#DejaVuSans-43" transform="translate(144.148438 0)"/>
      </g>
     </g>
    </g>
    <g id="xtick_17">
     <g id="line2d_17">
      <g>
       <use xlink:href="#m535b99e83e" x="245.824116" y="384.48" style="stroke: #000000; stroke-width: 0.8"/>
      </g>
     </g>
     <g id="text_17">
      <!-- ACT -->
      <g transform="translate(248.583491 411.23625) rotate(-90) scale(0.1 -0.1)">
       <use xlink:href="#DejaVuSans-41"/>
       <use xlink:href="#DejaVuSans-43" transform="translate(66.658203 0)"/>
       <use xlink:href="#DejaVuSans-54" transform="translate(136.482422 0)"/>
      </g>
     </g>
    </g>
    <g id="xtick_18">
     <g id="line2d_18">
      <g>
       <use xlink:href="#m535b99e83e" x="253.770947" y="384.48" style="stroke: #000000; stroke-width: 0.8"/>
      </g>
     </g>
     <g id="text_18">
      <!-- CAC -->
      <g transform="translate(256.530322 412.11125) rotate(-90) scale(0.1 -0.1)">
       <use xlink:href="#DejaVuSans-43"/>
       <use xlink:href="#DejaVuSans-41" transform="translate(69.824219 0)"/>
       <use xlink:href="#DejaVuSans-43" transform="translate(136.482422 0)"/>
      </g>
     </g>
    </g>
    <g id="xtick_19">
     <g id="line2d_19">
      <g>
       <use xlink:href="#m535b99e83e" x="261.717778" y="384.48" style="stroke: #000000; stroke-width: 0.8"/>
      </g>
     </g>
     <g id="text_19">
      <!-- CTC -->
      <g transform="translate(264.477153 410.965937) rotate(-90) scale(0.1 -0.1)">
       <use xlink:href="#DejaVuSans-43"/>
       <use xlink:href="#DejaVuSans-54" transform="translate(69.824219 0)"/>
       <use xlink:href="#DejaVuSans-43" transform="translate(125.033203 0)"/>
      </g>
     </g>
    </g>
    <g id="xtick_20">
     <g id="line2d_20">
      <g>
       <use xlink:href="#m535b99e83e" x="269.66461" y="384.48" style="stroke: #000000; stroke-width: 0.8"/>
      </g>
     </g>
     <g id="text_20">
      <!-- GTT -->
      <g transform="translate(272.423985 410.906563) rotate(-90) scale(0.1 -0.1)">
       <use xlink:href="#DejaVuSans-47"/>
       <use xlink:href="#DejaVuSans-54" transform="translate(73.865234 0)"/>
       <use xlink:href="#DejaVuSans-54" transform="translate(133.199219 0)"/>
      </g>
     </g>
    </g>
    <g id="xtick_21">
     <g id="line2d_21">
      <g>
       <use xlink:href="#m535b99e83e" x="277.611441" y="384.48" style="stroke: #000000; stroke-width: 0.8"/>
      </g>
     </g>
     <g id="text_21">
      <!-- TAG -->
      <g transform="translate(280.370816 411.226875) rotate(-90) scale(0.1 -0.1)">
       <use xlink:href="#DejaVuSans-54"/>
       <use xlink:href="#DejaVuSans-41" transform="translate(53.333984 0)"/>
       <use xlink:href="#DejaVuSans-47" transform="translate(119.992188 0)"/>
      </g>
     </g>
    </g>
    <g id="xtick_22">
     <g id="line2d_22">
      <g>
       <use xlink:href="#m535b99e83e" x="285.558272" y="384.48" style="stroke: #000000; stroke-width: 0.8"/>
      </g>
     </g>
     <g id="text_22">
      <!-- ACG -->
      <g transform="translate(288.317647 412.876875) rotate(-90) scale(0.1 -0.1)">
       <use xlink:href="#DejaVuSans-41"/>
       <use xlink:href="#DejaVuSans-43" transform="translate(66.658203 0)"/>
       <use xlink:href="#DejaVuSans-47" transform="translate(136.482422 0)"/>
      </g>
     </g>
    </g>
    <g id="xtick_23">
     <g id="line2d_23">
      <g>
       <use xlink:href="#m535b99e83e" x="293.505103" y="384.48" style="stroke: #000000; stroke-width: 0.8"/>
      </g>
     </g>
     <g id="text_23">
      <!-- CAA -->
      <g transform="translate(296.264478 412.419062) rotate(-90) scale(0.1 -0.1)">
       <use xlink:href="#DejaVuSans-43"/>
       <use xlink:href="#DejaVuSans-41" transform="translate(69.824219 0)"/>
       <use xlink:href="#DejaVuSans-41" transform="translate(140.982422 0)"/>
      </g>
     </g>
    </g>
    <g id="xtick_24">
     <g id="line2d_24">
      <g>
       <use xlink:href="#m535b99e83e" x="301.451934" y="384.48" style="stroke: #000000; stroke-width: 0.8"/>
      </g>
     </g>
     <g id="text_24">
      <!-- GAA -->
      <g transform="translate(304.211309 413.184687) rotate(-90) scale(0.1 -0.1)">
       <use xlink:href="#DejaVuSans-47"/>
       <use xlink:href="#DejaVuSans-41" transform="translate(77.490234 0)"/>
       <use xlink:href="#DejaVuSans-41" transform="translate(148.648438 0)"/>
      </g>
     </g>
    </g>
    <g id="xtick_25">
     <g id="line2d_25">
      <g>
       <use xlink:href="#m535b99e83e" x="309.398766" y="384.48" style="stroke: #000000; stroke-width: 0.8"/>
      </g>
     </g>
     <g id="text_25">
      <!-- CAG -->
      <g transform="translate(312.158141 412.876875) rotate(-90) scale(0.1 -0.1)">
       <use xlink:href="#DejaVuSans-43"/>
       <use xlink:href="#DejaVuSans-41" transform="translate(69.824219 0)"/>
       <use xlink:href="#DejaVuSans-47" transform="translate(136.482422 0)"/>
      </g>
     </g>
    </g>
    <g id="xtick_26">
     <g id="line2d_26">
      <g>
       <use xlink:href="#m535b99e83e" x="317.345597" y="384.48" style="stroke: #000000; stroke-width: 0.8"/>
      </g>
     </g>
     <g id="text_26">
      <!-- TCA -->
      <g transform="translate(320.104972 410.82375) rotate(-90) scale(0.1 -0.1)">
       <use xlink:href="#DejaVuSans-54"/>
       <use xlink:href="#DejaVuSans-43" transform="translate(55.208984 0)"/>
       <use xlink:href="#DejaVuSans-41" transform="translate(125.033203 0)"/>
      </g>
     </g>
    </g>
    <g id="xtick_27">
     <g id="line2d_27">
      <g>
       <use xlink:href="#m535b99e83e" x="325.292428" y="384.48" style="stroke: #000000; stroke-width: 0.8"/>
      </g>
     </g>
     <g id="text_27">
      <!-- GCT -->
      <g transform="translate(328.051803 412.319063) rotate(-90) scale(0.1 -0.1)">
       <use xlink:href="#DejaVuSans-47"/>
       <use xlink:href="#DejaVuSans-43" transform="translate(77.490234 0)"/>
       <use xlink:href="#DejaVuSans-54" transform="translate(147.314453 0)"/>
      </g>
     </g>
    </g>
    <g id="xtick_28">
     <g id="line2d_28">
      <g>
       <use xlink:href="#m535b99e83e" x="333.239259" y="384.48" style="stroke: #000000; stroke-width: 0.8"/>
      </g>
     </g>
     <g id="text_28">
      <!-- TTT -->
      <g transform="translate(335.998634 409.453438) rotate(-90) scale(0.1 -0.1)">
       <use xlink:href="#DejaVuSans-54"/>
       <use xlink:href="#DejaVuSans-54" transform="translate(59.333984 0)"/>
       <use xlink:href="#DejaVuSans-54" transform="translate(118.667969 0)"/>
      </g>
     </g>
    </g>
    <g id="xtick_29">
     <g id="line2d_29">
      <g>
       <use xlink:href="#m535b99e83e" x="341.186091" y="384.48" style="stroke: #000000; stroke-width: 0.8"/>
      </g>
     </g>
     <g id="text_29">
      <!-- GCG -->
      <g transform="translate(343.945466 413.959688) rotate(-90) scale(0.1 -0.1)">
       <use xlink:href="#DejaVuSans-47"/>
       <use xlink:href="#DejaVuSans-43" transform="translate(77.490234 0)"/>
       <use xlink:href="#DejaVuSans-47" transform="translate(147.314453 0)"/>
      </g>
     </g>
    </g>
    <g id="xtick_30">
     <g id="line2d_30">
      <g>
       <use xlink:href="#m535b99e83e" x="349.132922" y="384.48" style="stroke: #000000; stroke-width: 0.8"/>
      </g>
     </g>
     <g id="text_30">
      <!-- GTA -->
      <g transform="translate(351.892297 411.039375) rotate(-90) scale(0.1 -0.1)">
       <use xlink:href="#DejaVuSans-47"/>
       <use xlink:href="#DejaVuSans-54" transform="translate(73.865234 0)"/>
       <use xlink:href="#DejaVuSans-41" transform="translate(127.199219 0)"/>
      </g>
     </g>
    </g>
    <g id="xtick_31">
     <g id="line2d_31">
      <g>
       <use xlink:href="#m535b99e83e" x="357.079753" y="384.48" style="stroke: #000000; stroke-width: 0.8"/>
      </g>
     </g>
     <g id="text_31">
      <!-- TTA -->
      <g transform="translate(359.839128 409.58625) rotate(-90) scale(0.1 -0.1)">
       <use xlink:href="#DejaVuSans-54"/>
       <use xlink:href="#DejaVuSans-54" transform="translate(59.333984 0)"/>
       <use xlink:href="#DejaVuSans-41" transform="translate(112.667969 0)"/>
      </g>
     </g>
    </g>
    <g id="xtick_32">
     <g id="line2d_32">
      <g>
       <use xlink:href="#m535b99e83e" x="365.026584" y="384.48" style="stroke: #000000; stroke-width: 0.8"/>
      </g>
     </g>
     <g id="text_32">
      <!-- CCT -->
      <g transform="translate(367.785959 411.553438) rotate(-90) scale(0.1 -0.1)">
       <use xlink:href="#DejaVuSans-43"/>
       <use xlink:href="#DejaVuSans-43" transform="translate(69.824219 0)"/>
       <use xlink:href="#DejaVuSans-54" transform="translate(139.648438 0)"/>
      </g>
     </g>
    </g>
    <g id="xtick_33">
     <g id="line2d_33">
      <g>
       <use xlink:href="#m535b99e83e" x="372.973416" y="384.48" style="stroke: #000000; stroke-width: 0.8"/>
      </g>
     </g>
     <g id="text_33">
      <!-- AGG -->
      <g transform="translate(375.732791 413.6425) rotate(-90) scale(0.1 -0.1)">
       <use xlink:href="#DejaVuSans-41"/>
       <use xlink:href="#DejaVuSans-47" transform="translate(66.658203 0)"/>
       <use xlink:href="#DejaVuSans-47" transform="translate(144.148438 0)"/>
      </g>
     </g>
    </g>
    <g id="xtick_34">
     <g id="line2d_34">
      <g>
       <use xlink:href="#m535b99e83e" x="380.920247" y="384.48" style="stroke: #000000; stroke-width: 0.8"/>
      </g>
     </g>
     <g id="text_34">
      <!-- CTG -->
      <g transform="translate(383.679622 412.319063) rotate(-90) scale(0.1 -0.1)">
       <use xlink:href="#DejaVuSans-43"/>
       <use xlink:href="#DejaVuSans-54" transform="translate(69.824219 0)"/>
       <use xlink:href="#DejaVuSans-47" transform="translate(130.908203 0)"/>
      </g>
     </g>
    </g>
    <g id="xtick_35">
     <g id="line2d_35">
      <g>
       <use xlink:href="#m535b99e83e" x="388.867078" y="384.48" style="stroke: #000000; stroke-width: 0.8"/>
      </g>
     </g>
     <g id="text_35">
      <!-- TCC -->
      <g transform="translate(391.626453 410.965937) rotate(-90) scale(0.1 -0.1)">
       <use xlink:href="#DejaVuSans-54"/>
       <use xlink:href="#DejaVuSans-43" transform="translate(55.208984 0)"/>
       <use xlink:href="#DejaVuSans-43" transform="translate(125.033203 0)"/>
      </g>
     </g>
    </g>
    <g id="xtick_36">
     <g id="line2d_36">
      <g>
       <use xlink:href="#m535b99e83e" x="396.813909" y="384.48" style="stroke: #000000; stroke-width: 0.8"/>
      </g>
     </g>
     <g id="text_36">
      <!-- AAA -->
      <g transform="translate(399.573284 412.551875) rotate(-90) scale(0.1 -0.1)">
       <use xlink:href="#DejaVuSans-41"/>
       <use xlink:href="#DejaVuSans-41" transform="translate(71.158203 0)"/>
       <use xlink:href="#DejaVuSans-41" transform="translate(142.316406 0)"/>
      </g>
     </g>
    </g>
    <g id="xtick_37">
     <g id="line2d_37">
      <g>
       <use xlink:href="#m535b99e83e" x="404.760741" y="384.48" style="stroke: #000000; stroke-width: 0.8"/>
      </g>
     </g>
     <g id="text_37">
      <!-- TGT -->
      <g transform="translate(407.520116 411.081563) rotate(-90) scale(0.1 -0.1)">
       <use xlink:href="#DejaVuSans-54"/>
       <use xlink:href="#DejaVuSans-47" transform="translate(61.083984 0)"/>
       <use xlink:href="#DejaVuSans-54" transform="translate(134.949219 0)"/>
      </g>
     </g>
    </g>
    <g id="xtick_38">
     <g id="line2d_38">
      <g>
       <use xlink:href="#m535b99e83e" x="412.707572" y="384.48" style="stroke: #000000; stroke-width: 0.8"/>
      </g>
     </g>
     <g id="text_38">
      <!-- CGA -->
      <g transform="translate(415.466947 413.051875) rotate(-90) scale(0.1 -0.1)">
       <use xlink:href="#DejaVuSans-43"/>
       <use xlink:href="#DejaVuSans-47" transform="translate(69.824219 0)"/>
       <use xlink:href="#DejaVuSans-41" transform="translate(147.314453 0)"/>
      </g>
     </g>
    </g>
    <g id="xtick_39">
     <g id="line2d_39">
      <g>
       <use xlink:href="#m535b99e83e" x="420.654403" y="384.48" style="stroke: #000000; stroke-width: 0.8"/>
      </g>
     </g>
     <g id="text_39">
      <!-- GGA -->
      <g transform="translate(423.413778 413.8175) rotate(-90) scale(0.1 -0.1)">
       <use xlink:href="#DejaVuSans-47"/>
       <use xlink:href="#DejaVuSans-47" transform="translate(77.490234 0)"/>
       <use xlink:href="#DejaVuSans-41" transform="translate(154.980469 0)"/>
      </g>
     </g>
    </g>
    <g id="xtick_40">
     <g id="line2d_40">
      <g>
       <use xlink:href="#m535b99e83e" x="428.601234" y="384.48" style="stroke: #000000; stroke-width: 0.8"/>
      </g>
     </g>
     <g id="text_40">
      <!-- TTC -->
      <g transform="translate(431.360609 409.915937) rotate(-90) scale(0.1 -0.1)">
       <use xlink:href="#DejaVuSans-54"/>
       <use xlink:href="#DejaVuSans-54" transform="translate(59.333984 0)"/>
       <use xlink:href="#DejaVuSans-43" transform="translate(114.542969 0)"/>
      </g>
     </g>
    </g>
    <g id="xtick_41">
     <g id="line2d_41">
      <g>
       <use xlink:href="#m535b99e83e" x="436.548066" y="384.48" style="stroke: #000000; stroke-width: 0.8"/>
      </g>
     </g>
     <g id="text_41">
      <!-- CCC -->
      <g transform="translate(439.307441 412.428438) rotate(-90) scale(0.1 -0.1)">
       <use xlink:href="#DejaVuSans-43"/>
       <use xlink:href="#DejaVuSans-43" transform="translate(69.824219 0)"/>
       <use xlink:href="#DejaVuSans-43" transform="translate(139.648438 0)"/>
      </g>
     </g>
    </g>
    <g id="xtick_42">
     <g id="line2d_42">
      <g>
       <use xlink:href="#m535b99e83e" x="444.494897" y="384.48" style="stroke: #000000; stroke-width: 0.8"/>
      </g>
     </g>
     <g id="text_42">
      <!-- TCT -->
      <g transform="translate(447.254272 410.090937) rotate(-90) scale(0.1 -0.1)">
       <use xlink:href="#DejaVuSans-54"/>
       <use xlink:href="#DejaVuSans-43" transform="translate(55.208984 0)"/>
       <use xlink:href="#DejaVuSans-54" transform="translate(125.033203 0)"/>
      </g>
     </g>
    </g>
    <g id="xtick_43">
     <g id="line2d_43">
      <g>
       <use xlink:href="#m535b99e83e" x="452.441728" y="384.48" style="stroke: #000000; stroke-width: 0.8"/>
      </g>
     </g>
     <g id="text_43">
      <!-- CCA -->
      <g transform="translate(455.201103 412.28625) rotate(-90) scale(0.1 -0.1)">
       <use xlink:href="#DejaVuSans-43"/>
       <use xlink:href="#DejaVuSans-43" transform="translate(69.824219 0)"/>
       <use xlink:href="#DejaVuSans-41" transform="translate(139.648438 0)"/>
      </g>
     </g>
    </g>
    <g id="xtick_44">
     <g id="line2d_44">
      <g>
       <use xlink:href="#m535b99e83e" x="460.388559" y="384.48" style="stroke: #000000; stroke-width: 0.8"/>
      </g>
     </g>
     <g id="text_44">
      <!-- AAG -->
      <g transform="translate(463.147934 413.009687) rotate(-90) scale(0.1 -0.1)">
       <use xlink:href="#DejaVuSans-41"/>
       <use xlink:href="#DejaVuSans-41" transform="translate(71.158203 0)"/>
       <use xlink:href="#DejaVuSans-47" transform="translate(137.816406 0)"/>
      </g>
     </g>
    </g>
    <g id="xtick_45">
     <g id="line2d_45">
      <g>
       <use xlink:href="#m535b99e83e" x="468.33539" y="384.48" style="stroke: #000000; stroke-width: 0.8"/>
      </g>
     </g>
     <g id="text_45">
      <!-- ATT -->
      <g transform="translate(471.094765 409.58625) rotate(-90) scale(0.1 -0.1)">
       <use xlink:href="#DejaVuSans-41"/>
       <use xlink:href="#DejaVuSans-54" transform="translate(60.658203 0)"/>
       <use xlink:href="#DejaVuSans-54" transform="translate(119.992188 0)"/>
      </g>
     </g>
    </g>
    <g id="xtick_46">
     <g id="line2d_46">
      <g>
       <use xlink:href="#m535b99e83e" x="476.282222" y="384.48" style="stroke: #000000; stroke-width: 0.8"/>
      </g>
     </g>
     <g id="text_46">
      <!-- TGA -->
      <g transform="translate(479.041597 412.176875) rotate(-90) scale(0.1 -0.1)">
       <use xlink:href="#DejaVuSans-54"/>
       <use xlink:href="#DejaVuSans-47" transform="translate(61.083984 0)"/>
       <use xlink:href="#DejaVuSans-41" transform="translate(138.574219 0)"/>
      </g>
     </g>
    </g>
    <g id="xtick_47">
     <g id="line2d_47">
      <g>
       <use xlink:href="#m535b99e83e" x="484.229053" y="384.48" style="stroke: #000000; stroke-width: 0.8"/>
      </g>
     </g>
     <g id="text_47">
      <!-- CTA -->
      <g transform="translate(486.988428 410.63625) rotate(-90) scale(0.1 -0.1)">
       <use xlink:href="#DejaVuSans-43"/>
       <use xlink:href="#DejaVuSans-54" transform="translate(69.824219 0)"/>
       <use xlink:href="#DejaVuSans-41" transform="translate(123.158203 0)"/>
      </g>
     </g>
    </g>
    <g id="xtick_48">
     <g id="line2d_48">
      <g>
       <use xlink:href="#m535b99e83e" x="492.175884" y="384.48" style="stroke: #000000; stroke-width: 0.8"/>
      </g>
     </g>
     <g id="text_48">
      <!-- TAC -->
      <g transform="translate(494.935259 410.46125) rotate(-90) scale(0.1 -0.1)">
       <use xlink:href="#DejaVuSans-54"/>
       <use xlink:href="#DejaVuSans-41" transform="translate(53.333984 0)"/>
       <use xlink:href="#DejaVuSans-43" transform="translate(119.992188 0)"/>
      </g>
     </g>
    </g>
    <g id="xtick_49">
     <g id="line2d_49">
      <g>
       <use xlink:href="#m535b99e83e" x="500.122715" y="384.48" style="stroke: #000000; stroke-width: 0.8"/>
      </g>
     </g>
     <g id="text_49">
      <!-- GAC -->
      <g transform="translate(502.88209 412.876875) rotate(-90) scale(0.1 -0.1)">
       <use xlink:href="#DejaVuSans-47"/>
       <use xlink:href="#DejaVuSans-41" transform="translate(77.490234 0)"/>
       <use xlink:href="#DejaVuSans-43" transform="translate(144.148438 0)"/>
      </g>
     </g>
    </g>
    <g id="xtick_50">
     <g id="line2d_50">
      <g>
       <use xlink:href="#m535b99e83e" x="508.069547" y="384.48" style="stroke: #000000; stroke-width: 0.8"/>
      </g>
     </g>
     <g id="text_50">
      <!-- GGC -->
      <g transform="translate(510.828922 413.959688) rotate(-90) scale(0.1 -0.1)">
       <use xlink:href="#DejaVuSans-47"/>
       <use xlink:href="#DejaVuSans-47" transform="translate(77.490234 0)"/>
       <use xlink:href="#DejaVuSans-43" transform="translate(154.980469 0)"/>
      </g>
     </g>
    </g>
    <g id="xtick_51">
     <g id="line2d_51">
      <g>
       <use xlink:href="#m535b99e83e" x="516.016378" y="384.48" style="stroke: #000000; stroke-width: 0.8"/>
      </g>
     </g>
     <g id="text_51">
      <!-- AGT -->
      <g transform="translate(518.775753 411.639375) rotate(-90) scale(0.1 -0.1)">
       <use xlink:href="#DejaVuSans-41"/>
       <use xlink:href="#DejaVuSans-47" transform="translate(66.658203 0)"/>
       <use xlink:href="#DejaVuSans-54" transform="translate(140.523438 0)"/>
      </g>
     </g>
    </g>
    <g id="xtick_52">
     <g id="line2d_52">
      <g>
       <use xlink:href="#m535b99e83e" x="523.963209" y="384.48" style="stroke: #000000; stroke-width: 0.8"/>
      </g>
     </g>
     <g id="text_52">
      <!-- ACC -->
      <g transform="translate(526.722584 412.11125) rotate(-90) scale(0.1 -0.1)">
       <use xlink:href="#DejaVuSans-41"/>
       <use xlink:href="#DejaVuSans-43" transform="translate(66.658203 0)"/>
       <use xlink:href="#DejaVuSans-43" transform="translate(136.482422 0)"/>
      </g>
     </g>
    </g>
    <g id="xtick_53">
     <g id="line2d_53">
      <g>
       <use xlink:href="#m535b99e83e" x="531.91004" y="384.48" style="stroke: #000000; stroke-width: 0.8"/>
      </g>
     </g>
     <g id="text_53">
      <!-- CAT -->
      <g transform="translate(534.669415 410.63625) rotate(-90) scale(0.1 -0.1)">
       <use xlink:href="#DejaVuSans-43"/>
       <use xlink:href="#DejaVuSans-41" transform="translate(69.824219 0)"/>
       <use xlink:href="#DejaVuSans-54" transform="translate(130.482422 0)"/>
      </g>
     </g>
    </g>
    <g id="xtick_54">
     <g id="line2d_54">
      <g>
       <use xlink:href="#m535b99e83e" x="539.856872" y="384.48" style="stroke: #000000; stroke-width: 0.8"/>
      </g>
     </g>
     <g id="text_54">
      <!-- TGC -->
      <g transform="translate(542.616247 412.319063) rotate(-90) scale(0.1 -0.1)">
       <use xlink:href="#DejaVuSans-54"/>
       <use xlink:href="#DejaVuSans-47" transform="translate(61.083984 0)"/>
       <use xlink:href="#DejaVuSans-43" transform="translate(138.574219 0)"/>
      </g>
     </g>
    </g>
    <g id="xtick_55">
     <g id="line2d_55">
      <g>
       <use xlink:href="#m535b99e83e" x="547.803703" y="384.48" style="stroke: #000000; stroke-width: 0.8"/>
      </g>
     </g>
     <g id="text_55">
      <!-- CGG -->
      <g transform="translate(550.563078 413.959688) rotate(-90) scale(0.1 -0.1)">
       <use xlink:href="#DejaVuSans-43"/>
       <use xlink:href="#DejaVuSans-47" transform="translate(69.824219 0)"/>
       <use xlink:href="#DejaVuSans-47" transform="translate(147.314453 0)"/>
      </g>
     </g>
    </g>
    <g id="xtick_56">
     <g id="line2d_56">
      <g>
       <use xlink:href="#m535b99e83e" x="555.750534" y="384.48" style="stroke: #000000; stroke-width: 0.8"/>
      </g>
     </g>
     <g id="text_56">
      <!-- TTG -->
      <g transform="translate(558.509909 411.269063) rotate(-90) scale(0.1 -0.1)">
       <use xlink:href="#DejaVuSans-54"/>
       <use xlink:href="#DejaVuSans-54" transform="translate(59.333984 0)"/>
       <use xlink:href="#DejaVuSans-47" transform="translate(120.417969 0)"/>
      </g>
     </g>
    </g>
    <g id="xtick_57">
     <g id="line2d_57">
      <g>
       <use xlink:href="#m535b99e83e" x="563.697365" y="384.48" style="stroke: #000000; stroke-width: 0.8"/>
      </g>
     </g>
     <g id="text_57">
      <!-- TAT -->
      <g transform="translate(566.45674 408.98625) rotate(-90) scale(0.1 -0.1)">
       <use xlink:href="#DejaVuSans-54"/>
       <use xlink:href="#DejaVuSans-41" transform="translate(53.333984 0)"/>
       <use xlink:href="#DejaVuSans-54" transform="translate(113.992188 0)"/>
      </g>
     </g>
    </g>
    <g id="xtick_58">
     <g id="line2d_58">
      <g>
       <use xlink:href="#m535b99e83e" x="571.644197" y="384.48" style="stroke: #000000; stroke-width: 0.8"/>
      </g>
     </g>
     <g id="text_58">
      <!-- GAG -->
      <g transform="translate(574.403572 413.6425) rotate(-90) scale(0.1 -0.1)">
       <use xlink:href="#DejaVuSans-47"/>
       <use xlink:href="#DejaVuSans-41" transform="translate(77.490234 0)"/>
       <use xlink:href="#DejaVuSans-47" transform="translate(144.148438 0)"/>
      </g>
     </g>
    </g>
    <g id="xtick_59">
     <g id="line2d_59">
      <g>
       <use xlink:href="#m535b99e83e" x="579.591028" y="384.48" style="stroke: #000000; stroke-width: 0.8"/>
      </g>
     </g>
     <g id="text_59">
      <!-- GGG -->
      <g transform="translate(582.350403 414.725313) rotate(-90) scale(0.1 -0.1)">
       <use xlink:href="#DejaVuSans-47"/>
       <use xlink:href="#DejaVuSans-47" transform="translate(77.490234 0)"/>
       <use xlink:href="#DejaVuSans-47" transform="translate(154.980469 0)"/>
      </g>
     </g>
    </g>
    <g id="xtick_60">
     <g id="line2d_60">
      <g>
       <use xlink:href="#m535b99e83e" x="587.537859" y="384.48" style="stroke: #000000; stroke-width: 0.8"/>
      </g>
     </g>
     <g id="text_60">
      <!-- CCG -->
      <g transform="translate(590.297234 413.194063) rotate(-90) scale(0.1 -0.1)">
       <use xlink:href="#DejaVuSans-43"/>
       <use xlink:href="#DejaVuSans-43" transform="translate(69.824219 0)"/>
       <use xlink:href="#DejaVuSans-47" transform="translate(139.648438 0)"/>
      </g>
     </g>
    </g>
    <g id="xtick_61">
     <g id="line2d_61">
      <g>
       <use xlink:href="#m535b99e83e" x="595.48469" y="384.48" style="stroke: #000000; stroke-width: 0.8"/>
      </g>
     </g>
     <g id="text_61">
      <!-- TAA -->
      <g transform="translate(598.244065 410.769063) rotate(-90) scale(0.1 -0.1)">
       <use xlink:href="#DejaVuSans-54"/>
       <use xlink:href="#DejaVuSans-41" transform="translate(53.333984 0)"/>
       <use xlink:href="#DejaVuSans-41" transform="translate(124.492188 0)"/>
      </g>
     </g>
    </g>
    <g id="xtick_62">
     <g id="line2d_62">
      <g>
       <use xlink:href="#m535b99e83e" x="603.431521" y="384.48" style="stroke: #000000; stroke-width: 0.8"/>
      </g>
     </g>
     <g id="text_62">
      <!-- GGT -->
      <g transform="translate(606.190896 412.722188) rotate(-90) scale(0.1 -0.1)">
       <use xlink:href="#DejaVuSans-47"/>
       <use xlink:href="#DejaVuSans-47" transform="translate(77.490234 0)"/>
       <use xlink:href="#DejaVuSans-54" transform="translate(151.355469 0)"/>
      </g>
     </g>
    </g>
    <g id="xtick_63">
     <g id="line2d_63">
      <g>
       <use xlink:href="#m535b99e83e" x="611.378353" y="384.48" style="stroke: #000000; stroke-width: 0.8"/>
      </g>
     </g>
     <g id="text_63">
      <!-- ATA -->
      <g transform="translate(614.137728 409.719063) rotate(-90) scale(0.1 -0.1)">
       <use xlink:href="#DejaVuSans-41"/>
       <use xlink:href="#DejaVuSans-54" transform="translate(60.658203 0)"/>
       <use xlink:href="#DejaVuSans-41" transform="translate(113.992188 0)"/>
      </g>
     </g>
    </g>
    <g id="xtick_64">
     <g id="line2d_64">
      <g>
       <use xlink:href="#m535b99e83e" x="619.325184" y="384.48" style="stroke: #000000; stroke-width: 0.8"/>
      </g>
     </g>
     <g id="text_64">
      <!-- AAT -->
      <g transform="translate(622.084559 410.769063) rotate(-90) scale(0.1 -0.1)">
       <use xlink:href="#DejaVuSans-41"/>
       <use xlink:href="#DejaVuSans-41" transform="translate(71.158203 0)"/>
       <use xlink:href="#DejaVuSans-54" transform="translate(131.816406 0)"/>
      </g>
     </g>
    </g>
    <g id="text_65">
     <!-- Codon -->
     <g transform="translate(353.046875 426.32375) scale(0.1 -0.1)">
      <defs>
       <path id="DejaVuSans-6f" d="M 1959 3097 
Q 1497 3097 1228 2736 
Q 959 2375 959 1747 
Q 959 1119 1226 758 
Q 1494 397 1959 397 
Q 2419 397 2687 759 
Q 2956 1122 2956 1747 
Q 2956 2369 2687 2733 
Q 2419 3097 1959 3097 
z
M 1959 3584 
Q 2709 3584 3137 3096 
Q 3566 2609 3566 1747 
Q 3566 888 3137 398 
Q 2709 -91 1959 -91 
Q 1206 -91 779 398 
Q 353 888 353 1747 
Q 353 2609 779 3096 
Q 1206 3584 1959 3584 
z
" transform="scale(0.015625)"/>
       <path id="DejaVuSans-64" d="M 2906 2969 
L 2906 4863 
L 3481 4863 
L 3481 0 
L 2906 0 
L 2906 525 
Q 2725 213 2448 61 
Q 2172 -91 1784 -91 
Q 1150 -91 751 415 
Q 353 922 353 1747 
Q 353 2572 751 3078 
Q 1150 3584 1784 3584 
Q 2172 3584 2448 3432 
Q 2725 3281 2906 2969 
z
M 947 1747 
Q 947 1113 1208 752 
Q 1469 391 1925 391 
Q 2381 391 2643 752 
Q 2906 1113 2906 1747 
Q 2906 2381 2643 2742 
Q 2381 3103 1925 3103 
Q 1469 3103 1208 2742 
Q 947 2381 947 1747 
z
" transform="scale(0.015625)"/>
       <path id="DejaVuSans-6e" d="M 3513 2113 
L 3513 0 
L 2938 0 
L 2938 2094 
Q 2938 2591 2744 2837 
Q 2550 3084 2163 3084 
Q 1697 3084 1428 2787 
Q 1159 2491 1159 1978 
L 1159 0 
L 581 0 
L 581 3500 
L 1159 3500 
L 1159 2956 
Q 1366 3272 1645 3428 
Q 1925 3584 2291 3584 
Q 2894 3584 3203 3211 
Q 3513 2838 3513 2113 
z
" transform="scale(0.015625)"/>
      </defs>
      <use xlink:href="#DejaVuSans-43"/>
      <use xlink:href="#DejaVuSans-6f" transform="translate(69.824219 0)"/>
      <use xlink:href="#DejaVuSans-64" transform="translate(131.005859 0)"/>
      <use xlink:href="#DejaVuSans-6f" transform="translate(194.482422 0)"/>
      <use xlink:href="#DejaVuSans-6e" transform="translate(255.664062 0)"/>
     </g>
    </g>
   </g>
   <g id="matplotlib.axis_2">
    <g id="ytick_1">
     <g id="line2d_65">
      <defs>
       <path id="m72d560a934" d="M 0 0 
L -3.5 0 
" style="stroke: #000000; stroke-width: 0.8"/>
      </defs>
      <g>
       <use xlink:href="#m72d560a934" x="90" y="384.48" style="stroke: #000000; stroke-width: 0.8"/>
      </g>
     </g>
     <g id="text_66">
      <!-- 0 -->
      <g transform="translate(76.6375 388.279219) scale(0.1 -0.1)">
       <defs>
        <path id="DejaVuSans-30" d="M 2034 4250 
Q 1547 4250 1301 3770 
Q 1056 3291 1056 2328 
Q 1056 1369 1301 889 
Q 1547 409 2034 409 
Q 2525 409 2770 889 
Q 3016 1369 3016 2328 
Q 3016 3291 2770 3770 
Q 2525 4250 2034 4250 
z
M 2034 4750 
Q 2819 4750 3233 4129 
Q 3647 3509 3647 2328 
Q 3647 1150 3233 529 
Q 2819 -91 2034 -91 
Q 1250 -91 836 529 
Q 422 1150 422 2328 
Q 422 3509 836 4129 
Q 1250 4750 2034 4750 
z
" transform="scale(0.015625)"/>
       </defs>
       <use xlink:href="#DejaVuSans-30"/>
      </g>
     </g>
    </g>
    <g id="ytick_2">
     <g id="line2d_66">
      <g>
       <use xlink:href="#m72d560a934" x="90" y="345.267631" style="stroke: #000000; stroke-width: 0.8"/>
      </g>
     </g>
     <g id="text_67">
      <!-- 1 -->
      <g transform="translate(76.6375 349.06685) scale(0.1 -0.1)">
       <defs>
        <path id="DejaVuSans-31" d="M 794 531 
L 1825 531 
L 1825 4091 
L 703 3866 
L 703 4441 
L 1819 4666 
L 2450 4666 
L 2450 531 
L 3481 531 
L 3481 0 
L 794 0 
L 794 531 
z
" transform="scale(0.015625)"/>
       </defs>
       <use xlink:href="#DejaVuSans-31"/>
      </g>
     </g>
    </g>
    <g id="ytick_3">
     <g id="line2d_67">
      <g>
       <use xlink:href="#m72d560a934" x="90" y="306.055262" style="stroke: #000000; stroke-width: 0.8"/>
      </g>
     </g>
     <g id="text_68">
      <!-- 2 -->
      <g transform="translate(76.6375 309.85448) scale(0.1 -0.1)">
       <defs>
        <path id="DejaVuSans-32" d="M 1228 531 
L 3431 531 
L 3431 0 
L 469 0 
L 469 531 
Q 828 903 1448 1529 
Q 2069 2156 2228 2338 
Q 2531 2678 2651 2914 
Q 2772 3150 2772 3378 
Q 2772 3750 2511 3984 
Q 2250 4219 1831 4219 
Q 1534 4219 1204 4116 
Q 875 4013 500 3803 
L 500 4441 
Q 881 4594 1212 4672 
Q 1544 4750 1819 4750 
Q 2544 4750 2975 4387 
Q 3406 4025 3406 3419 
Q 3406 3131 3298 2873 
Q 3191 2616 2906 2266 
Q 2828 2175 2409 1742 
Q 1991 1309 1228 531 
z
" transform="scale(0.015625)"/>
       </defs>
       <use xlink:href="#DejaVuSans-32"/>
      </g>
     </g>
    </g>
    <g id="ytick_4">
     <g id="line2d_68">
      <g>
       <use xlink:href="#m72d560a934" x="90" y="266.842893" style="stroke: #000000; stroke-width: 0.8"/>
      </g>
     </g>
     <g id="text_69">
      <!-- 3 -->
      <g transform="translate(76.6375 270.642111) scale(0.1 -0.1)">
       <defs>
        <path id="DejaVuSans-33" d="M 2597 2516 
Q 3050 2419 3304 2112 
Q 3559 1806 3559 1356 
Q 3559 666 3084 287 
Q 2609 -91 1734 -91 
Q 1441 -91 1130 -33 
Q 819 25 488 141 
L 488 750 
Q 750 597 1062 519 
Q 1375 441 1716 441 
Q 2309 441 2620 675 
Q 2931 909 2931 1356 
Q 2931 1769 2642 2001 
Q 2353 2234 1838 2234 
L 1294 2234 
L 1294 2753 
L 1863 2753 
Q 2328 2753 2575 2939 
Q 2822 3125 2822 3475 
Q 2822 3834 2567 4026 
Q 2313 4219 1838 4219 
Q 1578 4219 1281 4162 
Q 984 4106 628 3988 
L 628 4550 
Q 988 4650 1302 4700 
Q 1616 4750 1894 4750 
Q 2613 4750 3031 4423 
Q 3450 4097 3450 3541 
Q 3450 3153 3228 2886 
Q 3006 2619 2597 2516 
z
" transform="scale(0.015625)"/>
       </defs>
       <use xlink:href="#DejaVuSans-33"/>
      </g>
     </g>
    </g>
    <g id="ytick_5">
     <g id="line2d_69">
      <g>
       <use xlink:href="#m72d560a934" x="90" y="227.630523" style="stroke: #000000; stroke-width: 0.8"/>
      </g>
     </g>
     <g id="text_70">
      <!-- 4 -->
      <g transform="translate(76.6375 231.429742) scale(0.1 -0.1)">
       <defs>
        <path id="DejaVuSans-34" d="M 2419 4116 
L 825 1625 
L 2419 1625 
L 2419 4116 
z
M 2253 4666 
L 3047 4666 
L 3047 1625 
L 3713 1625 
L 3713 1100 
L 3047 1100 
L 3047 0 
L 2419 0 
L 2419 1100 
L 313 1100 
L 313 1709 
L 2253 4666 
z
" transform="scale(0.015625)"/>
       </defs>
       <use xlink:href="#DejaVuSans-34"/>
      </g>
     </g>
    </g>
    <g id="ytick_6">
     <g id="line2d_70">
      <g>
       <use xlink:href="#m72d560a934" x="90" y="188.418154" style="stroke: #000000; stroke-width: 0.8"/>
      </g>
     </g>
     <g id="text_71">
      <!-- 5 -->
      <g transform="translate(76.6375 192.217373) scale(0.1 -0.1)">
       <defs>
        <path id="DejaVuSans-35" d="M 691 4666 
L 3169 4666 
L 3169 4134 
L 1269 4134 
L 1269 2991 
Q 1406 3038 1543 3061 
Q 1681 3084 1819 3084 
Q 2600 3084 3056 2656 
Q 3513 2228 3513 1497 
Q 3513 744 3044 326 
Q 2575 -91 1722 -91 
Q 1428 -91 1123 -41 
Q 819 9 494 109 
L 494 744 
Q 775 591 1075 516 
Q 1375 441 1709 441 
Q 2250 441 2565 725 
Q 2881 1009 2881 1497 
Q 2881 1984 2565 2268 
Q 2250 2553 1709 2553 
Q 1456 2553 1204 2497 
Q 953 2441 691 2322 
L 691 4666 
z
" transform="scale(0.015625)"/>
       </defs>
       <use xlink:href="#DejaVuSans-35"/>
      </g>
     </g>
    </g>
    <g id="ytick_7">
     <g id="line2d_71">
      <g>
       <use xlink:href="#m72d560a934" x="90" y="149.205785" style="stroke: #000000; stroke-width: 0.8"/>
      </g>
     </g>
     <g id="text_72">
      <!-- 6 -->
      <g transform="translate(76.6375 153.005004) scale(0.1 -0.1)">
       <defs>
        <path id="DejaVuSans-36" d="M 2113 2584 
Q 1688 2584 1439 2293 
Q 1191 2003 1191 1497 
Q 1191 994 1439 701 
Q 1688 409 2113 409 
Q 2538 409 2786 701 
Q 3034 994 3034 1497 
Q 3034 2003 2786 2293 
Q 2538 2584 2113 2584 
z
M 3366 4563 
L 3366 3988 
Q 3128 4100 2886 4159 
Q 2644 4219 2406 4219 
Q 1781 4219 1451 3797 
Q 1122 3375 1075 2522 
Q 1259 2794 1537 2939 
Q 1816 3084 2150 3084 
Q 2853 3084 3261 2657 
Q 3669 2231 3669 1497 
Q 3669 778 3244 343 
Q 2819 -91 2113 -91 
Q 1303 -91 875 529 
Q 447 1150 447 2328 
Q 447 3434 972 4092 
Q 1497 4750 2381 4750 
Q 2619 4750 2861 4703 
Q 3103 4656 3366 4563 
z
" transform="scale(0.015625)"/>
       </defs>
       <use xlink:href="#DejaVuSans-36"/>
      </g>
     </g>
    </g>
    <g id="ytick_8">
     <g id="line2d_72">
      <g>
       <use xlink:href="#m72d560a934" x="90" y="109.993416" style="stroke: #000000; stroke-width: 0.8"/>
      </g>
     </g>
     <g id="text_73">
      <!-- 7 -->
      <g transform="translate(76.6375 113.792635) scale(0.1 -0.1)">
       <defs>
        <path id="DejaVuSans-37" d="M 525 4666 
L 3525 4666 
L 3525 4397 
L 1831 0 
L 1172 0 
L 2766 4134 
L 525 4134 
L 525 4666 
z
" transform="scale(0.015625)"/>
       </defs>
       <use xlink:href="#DejaVuSans-37"/>
      </g>
     </g>
    </g>
    <g id="ytick_9">
     <g id="line2d_73">
      <g>
       <use xlink:href="#m72d560a934" x="90" y="70.781047" style="stroke: #000000; stroke-width: 0.8"/>
      </g>
     </g>
     <g id="text_74">
      <!-- 8 -->
      <g transform="translate(76.6375 74.580266) scale(0.1 -0.1)">
       <defs>
        <path id="DejaVuSans-38" d="M 2034 2216 
Q 1584 2216 1326 1975 
Q 1069 1734 1069 1313 
Q 1069 891 1326 650 
Q 1584 409 2034 409 
Q 2484 409 2743 651 
Q 3003 894 3003 1313 
Q 3003 1734 2745 1975 
Q 2488 2216 2034 2216 
z
M 1403 2484 
Q 997 2584 770 2862 
Q 544 3141 544 3541 
Q 544 4100 942 4425 
Q 1341 4750 2034 4750 
Q 2731 4750 3128 4425 
Q 3525 4100 3525 3541 
Q 3525 3141 3298 2862 
Q 3072 2584 2669 2484 
Q 3125 2378 3379 2068 
Q 3634 1759 3634 1313 
Q 3634 634 3220 271 
Q 2806 -91 2034 -91 
Q 1263 -91 848 271 
Q 434 634 434 1313 
Q 434 1759 690 2068 
Q 947 2378 1403 2484 
z
M 1172 3481 
Q 1172 3119 1398 2916 
Q 1625 2713 2034 2713 
Q 2441 2713 2670 2916 
Q 2900 3119 2900 3481 
Q 2900 3844 2670 4047 
Q 2441 4250 2034 4250 
Q 1625 4250 1398 4047 
Q 1172 3844 1172 3481 
z
" transform="scale(0.015625)"/>
       </defs>
       <use xlink:href="#DejaVuSans-38"/>
      </g>
     </g>
    </g>
    <g id="text_75">
     <!-- Count -->
     <g transform="translate(70.557812 233.008437) rotate(-90) scale(0.1 -0.1)">
      <defs>
       <path id="DejaVuSans-75" d="M 544 1381 
L 544 3500 
L 1119 3500 
L 1119 1403 
Q 1119 906 1312 657 
Q 1506 409 1894 409 
Q 2359 409 2629 706 
Q 2900 1003 2900 1516 
L 2900 3500 
L 3475 3500 
L 3475 0 
L 2900 0 
L 2900 538 
Q 2691 219 2414 64 
Q 2138 -91 1772 -91 
Q 1169 -91 856 284 
Q 544 659 544 1381 
z
M 1991 3584 
L 1991 3584 
z
" transform="scale(0.015625)"/>
       <path id="DejaVuSans-74" d="M 1172 4494 
L 1172 3500 
L 2356 3500 
L 2356 3053 
L 1172 3053 
L 1172 1153 
Q 1172 725 1289 603 
Q 1406 481 1766 481 
L 2356 481 
L 2356 0 
L 1766 0 
Q 1100 0 847 248 
Q 594 497 594 1153 
L 594 3053 
L 172 3053 
L 172 3500 
L 594 3500 
L 594 4494 
L 1172 4494 
z
" transform="scale(0.015625)"/>
      </defs>
      <use xlink:href="#DejaVuSans-43"/>
      <use xlink:href="#DejaVuSans-6f" transform="translate(69.824219 0)"/>
      <use xlink:href="#DejaVuSans-75" transform="translate(131.005859 0)"/>
      <use xlink:href="#DejaVuSans-6e" transform="translate(194.384766 0)"/>
      <use xlink:href="#DejaVuSans-74" transform="translate(257.763672 0)"/>
     </g>
    </g>
   </g>
   <g id="patch_131">
    <path d="M 90 384.48 
L 90 51.84 
" style="fill: none; stroke: #000000; stroke-width: 0.8; stroke-linejoin: miter; stroke-linecap: square"/>
   </g>
   <g id="patch_132">
    <path d="M 648 384.48 
L 648 51.84 
" style="fill: none; stroke: #000000; stroke-width: 0.8; stroke-linejoin: miter; stroke-linecap: square"/>
   </g>
   <g id="patch_133">
    <path d="M 90 384.48 
L 648 384.48 
" style="fill: none; stroke: #000000; stroke-width: 0.8; stroke-linejoin: miter; stroke-linecap: square"/>
   </g>
   <g id="patch_134">
    <path d="M 90 51.84 
L 648 51.84 
" style="fill: none; stroke: #000000; stroke-width: 0.8; stroke-linejoin: miter; stroke-linecap: square"/>
   </g>
   <g id="legend_1">
    <g id="patch_135">
     <path d="M 475.789062 104.430625 
L 641 104.430625 
Q 643 104.430625 643 102.430625 
L 643 58.84 
Q 643 56.84 641 56.84 
L 475.789062 56.84 
Q 473.789062 56.84 473.789062 58.84 
L 473.789062 102.430625 
Q 473.789062 104.430625 475.789062 104.430625 
z
" style="fill: #ffffff; opacity: 0.8; stroke: #cccccc; stroke-linejoin: miter"/>
    </g>
    <g id="text_76">
     <!-- Source -->
     <g transform="translate(541.223438 68.438437) scale(0.1 -0.1)">
      <defs>
       <path id="DejaVuSans-53" d="M 3425 4513 
L 3425 3897 
Q 3066 4069 2747 4153 
Q 2428 4238 2131 4238 
Q 1616 4238 1336 4038 
Q 1056 3838 1056 3469 
Q 1056 3159 1242 3001 
Q 1428 2844 1947 2747 
L 2328 2669 
Q 3034 2534 3370 2195 
Q 3706 1856 3706 1288 
Q 3706 609 3251 259 
Q 2797 -91 1919 -91 
Q 1588 -91 1214 -16 
Q 841 59 441 206 
L 441 856 
Q 825 641 1194 531 
Q 1563 422 1919 422 
Q 2459 422 2753 634 
Q 3047 847 3047 1241 
Q 3047 1584 2836 1778 
Q 2625 1972 2144 2069 
L 1759 2144 
Q 1053 2284 737 2584 
Q 422 2884 422 3419 
Q 422 4038 858 4394 
Q 1294 4750 2059 4750 
Q 2388 4750 2728 4690 
Q 3069 4631 3425 4513 
z
" transform="scale(0.015625)"/>
       <path id="DejaVuSans-72" d="M 2631 2963 
Q 2534 3019 2420 3045 
Q 2306 3072 2169 3072 
Q 1681 3072 1420 2755 
Q 1159 2438 1159 1844 
L 1159 0 
L 581 0 
L 581 3500 
L 1159 3500 
L 1159 2956 
Q 1341 3275 1631 3429 
Q 1922 3584 2338 3584 
Q 2397 3584 2469 3576 
Q 2541 3569 2628 3553 
L 2631 2963 
z
" transform="scale(0.015625)"/>
       <path id="DejaVuSans-63" d="M 3122 3366 
L 3122 2828 
Q 2878 2963 2633 3030 
Q 2388 3097 2138 3097 
Q 1578 3097 1268 2742 
Q 959 2388 959 1747 
Q 959 1106 1268 751 
Q 1578 397 2138 397 
Q 2388 397 2633 464 
Q 2878 531 3122 666 
L 3122 134 
Q 2881 22 2623 -34 
Q 2366 -91 2075 -91 
Q 1284 -91 818 406 
Q 353 903 353 1747 
Q 353 2603 823 3093 
Q 1294 3584 2113 3584 
Q 2378 3584 2631 3529 
Q 2884 3475 3122 3366 
z
" transform="scale(0.015625)"/>
       <path id="DejaVuSans-65" d="M 3597 1894 
L 3597 1613 
L 953 1613 
Q 991 1019 1311 708 
Q 1631 397 2203 397 
Q 2534 397 2845 478 
Q 3156 559 3463 722 
L 3463 178 
Q 3153 47 2828 -22 
Q 2503 -91 2169 -91 
Q 1331 -91 842 396 
Q 353 884 353 1716 
Q 353 2575 817 3079 
Q 1281 3584 2069 3584 
Q 2775 3584 3186 3129 
Q 3597 2675 3597 1894 
z
M 3022 2063 
Q 3016 2534 2758 2815 
Q 2500 3097 2075 3097 
Q 1594 3097 1305 2825 
Q 1016 2553 972 2059 
L 3022 2063 
z
" transform="scale(0.015625)"/>
      </defs>
      <use xlink:href="#DejaVuSans-53"/>
      <use xlink:href="#DejaVuSans-6f" transform="translate(63.476562 0)"/>
      <use xlink:href="#DejaVuSans-75" transform="translate(124.658203 0)"/>
      <use xlink:href="#DejaVuSans-72" transform="translate(188.037109 0)"/>
      <use xlink:href="#DejaVuSans-63" transform="translate(226.900391 0)"/>
      <use xlink:href="#DejaVuSans-65" transform="translate(281.880859 0)"/>
     </g>
    </g>
    <g id="patch_136">
     <path d="M 477.789062 83.116562 
L 497.789062 83.116562 
L 497.789062 76.116562 
L 477.789062 76.116562 
z
" style="fill: #1f77b4"/>
    </g>
    <g id="text_77">
     <!-- Caulobacter_vibrioides.fna -->
     <g transform="translate(505.789062 83.116562) scale(0.1 -0.1)">
      <defs>
       <path id="DejaVuSans-61" d="M 2194 1759 
Q 1497 1759 1228 1600 
Q 959 1441 959 1056 
Q 959 750 1161 570 
Q 1363 391 1709 391 
Q 2188 391 2477 730 
Q 2766 1069 2766 1631 
L 2766 1759 
L 2194 1759 
z
M 3341 1997 
L 3341 0 
L 2766 0 
L 2766 531 
Q 2569 213 2275 61 
Q 1981 -91 1556 -91 
Q 1019 -91 701 211 
Q 384 513 384 1019 
Q 384 1609 779 1909 
Q 1175 2209 1959 2209 
L 2766 2209 
L 2766 2266 
Q 2766 2663 2505 2880 
Q 2244 3097 1772 3097 
Q 1472 3097 1187 3025 
Q 903 2953 641 2809 
L 641 3341 
Q 956 3463 1253 3523 
Q 1550 3584 1831 3584 
Q 2591 3584 2966 3190 
Q 3341 2797 3341 1997 
z
" transform="scale(0.015625)"/>
       <path id="DejaVuSans-6c" d="M 603 4863 
L 1178 4863 
L 1178 0 
L 603 0 
L 603 4863 
z
" transform="scale(0.015625)"/>
       <path id="DejaVuSans-62" d="M 3116 1747 
Q 3116 2381 2855 2742 
Q 2594 3103 2138 3103 
Q 1681 3103 1420 2742 
Q 1159 2381 1159 1747 
Q 1159 1113 1420 752 
Q 1681 391 2138 391 
Q 2594 391 2855 752 
Q 3116 1113 3116 1747 
z
M 1159 2969 
Q 1341 3281 1617 3432 
Q 1894 3584 2278 3584 
Q 2916 3584 3314 3078 
Q 3713 2572 3713 1747 
Q 3713 922 3314 415 
Q 2916 -91 2278 -91 
Q 1894 -91 1617 61 
Q 1341 213 1159 525 
L 1159 0 
L 581 0 
L 581 4863 
L 1159 4863 
L 1159 2969 
z
" transform="scale(0.015625)"/>
       <path id="DejaVuSans-5f" d="M 3263 -1063 
L 3263 -1509 
L -63 -1509 
L -63 -1063 
L 3263 -1063 
z
" transform="scale(0.015625)"/>
       <path id="DejaVuSans-76" d="M 191 3500 
L 800 3500 
L 1894 563 
L 2988 3500 
L 3597 3500 
L 2284 0 
L 1503 0 
L 191 3500 
z
" transform="scale(0.015625)"/>
       <path id="DejaVuSans-69" d="M 603 3500 
L 1178 3500 
L 1178 0 
L 603 0 
L 603 3500 
z
M 603 4863 
L 1178 4863 
L 1178 4134 
L 603 4134 
L 603 4863 
z
" transform="scale(0.015625)"/>
       <path id="DejaVuSans-73" d="M 2834 3397 
L 2834 2853 
Q 2591 2978 2328 3040 
Q 2066 3103 1784 3103 
Q 1356 3103 1142 2972 
Q 928 2841 928 2578 
Q 928 2378 1081 2264 
Q 1234 2150 1697 2047 
L 1894 2003 
Q 2506 1872 2764 1633 
Q 3022 1394 3022 966 
Q 3022 478 2636 193 
Q 2250 -91 1575 -91 
Q 1294 -91 989 -36 
Q 684 19 347 128 
L 347 722 
Q 666 556 975 473 
Q 1284 391 1588 391 
Q 1994 391 2212 530 
Q 2431 669 2431 922 
Q 2431 1156 2273 1281 
Q 2116 1406 1581 1522 
L 1381 1569 
Q 847 1681 609 1914 
Q 372 2147 372 2553 
Q 372 3047 722 3315 
Q 1072 3584 1716 3584 
Q 2034 3584 2315 3537 
Q 2597 3491 2834 3397 
z
" transform="scale(0.015625)"/>
       <path id="DejaVuSans-2e" d="M 684 794 
L 1344 794 
L 1344 0 
L 684 0 
L 684 794 
z
" transform="scale(0.015625)"/>
       <path id="DejaVuSans-66" d="M 2375 4863 
L 2375 4384 
L 1825 4384 
Q 1516 4384 1395 4259 
Q 1275 4134 1275 3809 
L 1275 3500 
L 2222 3500 
L 2222 3053 
L 1275 3053 
L 1275 0 
L 697 0 
L 697 3053 
L 147 3053 
L 147 3500 
L 697 3500 
L 697 3744 
Q 697 4328 969 4595 
Q 1241 4863 1831 4863 
L 2375 4863 
z
" transform="scale(0.015625)"/>
      </defs>
      <use xlink:href="#DejaVuSans-43"/>
      <use xlink:href="#DejaVuSans-61" transform="translate(69.824219 0)"/>
      <use xlink:href="#DejaVuSans-75" transform="translate(131.103516 0)"/>
      <use xlink:href="#DejaVuSans-6c" transform="translate(194.482422 0)"/>
      <use xlink:href="#DejaVuSans-6f" transform="translate(222.265625 0)"/>
      <use xlink:href="#DejaVuSans-62" transform="translate(283.447266 0)"/>
      <use xlink:href="#DejaVuSans-61" transform="translate(346.923828 0)"/>
      <use xlink:href="#DejaVuSans-63" transform="translate(408.203125 0)"/>
      <use xlink:href="#DejaVuSans-74" transform="translate(463.183594 0)"/>
      <use xlink:href="#DejaVuSans-65" transform="translate(502.392578 0)"/>
      <use xlink:href="#DejaVuSans-72" transform="translate(563.916016 0)"/>
      <use xlink:href="#DejaVuSans-5f" transform="translate(605.029297 0)"/>
      <use xlink:href="#DejaVuSans-76" transform="translate(655.029297 0)"/>
      <use xlink:href="#DejaVuSans-69" transform="translate(714.208984 0)"/>
      <use xlink:href="#DejaVuSans-62" transform="translate(741.992188 0)"/>
      <use xlink:href="#DejaVuSans-72" transform="translate(805.46875 0)"/>
      <use xlink:href="#DejaVuSans-69" transform="translate(846.582031 0)"/>
      <use xlink:href="#DejaVuSans-6f" transform="translate(874.365234 0)"/>
      <use xlink:href="#DejaVuSans-69" transform="translate(935.546875 0)"/>
      <use xlink:href="#DejaVuSans-64" transform="translate(963.330078 0)"/>
      <use xlink:href="#DejaVuSans-65" transform="translate(1026.806641 0)"/>
      <use xlink:href="#DejaVuSans-73" transform="translate(1088.330078 0)"/>
      <use xlink:href="#DejaVuSans-2e" transform="translate(1140.429688 0)"/>
      <use xlink:href="#DejaVuSans-66" transform="translate(1172.216797 0)"/>
      <use xlink:href="#DejaVuSans-6e" transform="translate(1207.421875 0)"/>
      <use xlink:href="#DejaVuSans-61" transform="translate(1270.800781 0)"/>
     </g>
    </g>
    <g id="patch_137">
     <path d="M 477.789062 98.072812 
L 497.789062 98.072812 
L 497.789062 91.072812 
L 477.789062 91.072812 
z
" style="fill: #ff7f0e"/>
    </g>
    <g id="text_78">
     <!-- Bacillus_cereus.fna -->
     <g transform="translate(505.789062 98.072812) scale(0.1 -0.1)">
      <defs>
       <path id="DejaVuSans-42" d="M 1259 2228 
L 1259 519 
L 2272 519 
Q 2781 519 3026 730 
Q 3272 941 3272 1375 
Q 3272 1813 3026 2020 
Q 2781 2228 2272 2228 
L 1259 2228 
z
M 1259 4147 
L 1259 2741 
L 2194 2741 
Q 2656 2741 2882 2914 
Q 3109 3088 3109 3444 
Q 3109 3797 2882 3972 
Q 2656 4147 2194 4147 
L 1259 4147 
z
M 628 4666 
L 2241 4666 
Q 2963 4666 3353 4366 
Q 3744 4066 3744 3513 
Q 3744 3084 3544 2831 
Q 3344 2578 2956 2516 
Q 3422 2416 3680 2098 
Q 3938 1781 3938 1306 
Q 3938 681 3513 340 
Q 3088 0 2303 0 
L 628 0 
L 628 4666 
z
" transform="scale(0.015625)"/>
      </defs>
      <use xlink:href="#DejaVuSans-42"/>
      <use xlink:href="#DejaVuSans-61" transform="translate(68.603516 0)"/>
      <use xlink:href="#DejaVuSans-63" transform="translate(129.882812 0)"/>
      <use xlink:href="#DejaVuSans-69" transform="translate(184.863281 0)"/>
      <use xlink:href="#DejaVuSans-6c" transform="translate(212.646484 0)"/>
      <use xlink:href="#DejaVuSans-6c" transform="translate(240.429688 0)"/>
      <use xlink:href="#DejaVuSans-75" transform="translate(268.212891 0)"/>
      <use xlink:href="#DejaVuSans-73" transform="translate(331.591797 0)"/>
      <use xlink:href="#DejaVuSans-5f" transform="translate(383.691406 0)"/>
      <use xlink:href="#DejaVuSans-63" transform="translate(433.691406 0)"/>
      <use xlink:href="#DejaVuSans-65" transform="translate(488.671875 0)"/>
      <use xlink:href="#DejaVuSans-72" transform="translate(550.195312 0)"/>
      <use xlink:href="#DejaVuSans-65" transform="translate(589.058594 0)"/>
      <use xlink:href="#DejaVuSans-75" transform="translate(650.582031 0)"/>
      <use xlink:href="#DejaVuSans-73" transform="translate(713.960938 0)"/>
      <use xlink:href="#DejaVuSans-2e" transform="translate(766.060547 0)"/>
      <use xlink:href="#DejaVuSans-66" transform="translate(797.847656 0)"/>
      <use xlink:href="#DejaVuSans-6e" transform="translate(833.052734 0)"/>
      <use xlink:href="#DejaVuSans-61" transform="translate(896.431641 0)"/>
     </g>
    </g>
   </g>
  </g>
 </g>
 <defs>
  <clipPath id="p55b7164487">
   <rect x="90" y="51.84" width="558" height="332.64"/>
  </clipPath>
 </defs>
</svg>
